M48
; DRILL file {KiCad (5.1.6-0-10_14)} date Saturday, July 23, 2022 at 01:37:30 PM
; FORMAT={-:-/ absolute / metric / decimal}
; #@! TF.CreationDate,2022-07-23T13:37:30+09:00
; #@! TF.GenerationSoftware,Kicad,Pcbnew,(5.1.6-0-10_14)
; #@! TF.FileFunction,NonPlated,1,2,NPTH
FMAT,2
METRIC
T1C1.200
T2C1.500
T3C1.700
T4C1.800
T5C1.900
T6C3.000
T7C4.100
%
G90
G05
T1
X107.09Y31.41
X107.09Y24.41
X160.07Y31.47
X160.07Y24.47
X133.37Y31.41
X133.37Y24.41
T2
X250.87Y22.985
X250.87Y18.135
T3
X147.32Y0.0
X147.9Y0.0
X156.9Y0.0
X157.48Y0.0
X37.782Y-19.05
X38.362Y-19.05
X47.362Y-19.05
X47.942Y-19.05
X61.595Y-57.15
X62.175Y-57.15
X71.175Y-57.15
X71.755Y-57.15
X75.882Y-19.05
X76.462Y-19.05
X85.462Y-19.05
X86.042Y-19.05
X190.183Y-19.05
X190.762Y-19.05
X199.762Y-19.05
X200.343Y-19.05
X66.358Y-38.1
X66.938Y-38.1
X75.938Y-38.1
X76.517Y-38.1
X171.133Y-57.15
X171.713Y-57.15
X180.713Y-57.15
X181.293Y-57.15
X71.12Y0.0
X71.7Y0.0
X80.7Y0.0
X81.28Y0.0
X223.52Y0.0
X224.1Y0.0
X233.1Y0.0
X233.68Y0.0
X23.495Y-38.1
X24.075Y-38.1
X33.075Y-38.1
X33.655Y-38.1
X133.032Y-19.05
X133.612Y-19.05
X142.612Y-19.05
X143.192Y-19.05
X171.132Y-19.05
X171.713Y-19.05
X180.713Y-19.05
X181.292Y-19.05
X85.407Y-38.1
X85.987Y-38.1
X94.987Y-38.1
X95.567Y-38.1
X152.082Y-19.05
X152.662Y-19.05
X161.662Y-19.05
X162.243Y-19.05
X142.558Y-57.15
X143.138Y-57.15
X152.138Y-57.15
X152.718Y-57.15
X209.232Y-19.05
X209.812Y-19.05
X218.812Y-19.05
X219.392Y-19.05
X142.558Y-38.1
X143.137Y-38.1
X152.137Y-38.1
X152.718Y-38.1
X194.945Y-57.15
X195.525Y-57.15
X204.525Y-57.15
X205.105Y-57.15
X47.307Y-38.1
X47.887Y-38.1
X56.887Y-38.1
X57.467Y-38.1
X23.495Y-57.15
X24.075Y-57.15
X33.075Y-57.15
X33.655Y-57.15
X180.657Y-38.1
X181.237Y-38.1
X190.237Y-38.1
X190.817Y-38.1
X237.807Y-38.1
X238.387Y-38.1
X247.387Y-38.1
X247.968Y-38.1
X104.457Y-38.1
X105.037Y-38.1
X114.037Y-38.1
X114.617Y-38.1
X204.47Y0.0
X205.05Y0.0
X214.05Y0.0
X214.63Y0.0
X85.408Y-57.15
X85.988Y-57.15
X94.988Y-57.15
X95.568Y-57.15
X113.983Y-19.05
X114.562Y-19.05
X123.562Y-19.05
X124.142Y-19.05
X90.17Y0.0
X90.75Y0.0
X99.75Y0.0
X100.33Y0.0
X233.045Y-57.15
X233.625Y-57.15
X242.625Y-57.15
X243.205Y-57.15
X56.832Y-19.05
X57.412Y-19.05
X66.412Y-19.05
X66.992Y-19.05
X109.22Y0.0
X109.8Y0.0
X118.8Y0.0
X119.38Y0.0
X166.37Y0.0
X166.95Y0.0
X175.95Y0.0
X176.53Y0.0
X52.07Y0.0
X52.65Y0.0
X61.65Y0.0
X62.23Y0.0
X161.607Y-38.1
X162.188Y-38.1
X171.188Y-38.1
X171.767Y-38.1
X213.995Y-57.15
X214.575Y-57.15
X223.575Y-57.15
X224.155Y-57.15
X199.707Y-38.1
X200.287Y-38.1
X209.287Y-38.1
X209.867Y-38.1
X113.983Y-57.15
X114.563Y-57.15
X123.563Y-57.15
X124.143Y-57.15
X123.507Y-38.1
X124.087Y-38.1
X133.088Y-38.1
X133.667Y-38.1
X94.932Y-19.05
X95.512Y-19.05
X104.512Y-19.05
X105.093Y-19.05
X33.02Y0.0
X33.6Y0.0
X42.6Y0.0
X43.18Y0.0
X42.545Y-57.15
X43.125Y-57.15
X52.125Y-57.15
X52.705Y-57.15
X218.757Y-38.1
X219.337Y-38.1
X228.337Y-38.1
X228.917Y-38.1
X185.42Y0.0
X186.0Y0.0
X195.0Y0.0
X195.58Y0.0
X18.732Y-19.05
X19.312Y-19.05
X28.312Y-19.05
X28.892Y-19.05
X128.27Y0.0
X128.85Y0.0
X137.85Y0.0
X138.43Y0.0
X233.045Y-19.05
X233.625Y-19.05
X242.625Y-19.05
X243.206Y-19.05
T4
X253.9Y23.285
X253.9Y17.835
T5
X213.575Y-57.15
X224.575Y-57.15
X199.287Y-38.1
X210.287Y-38.1
X113.563Y-57.15
X124.563Y-57.15
X123.087Y-38.1
X134.088Y-38.1
X94.512Y-19.05
X105.512Y-19.05
X32.6Y0.0
X43.6Y0.0
X42.125Y-57.15
X53.125Y-57.15
X218.337Y-38.1
X229.337Y-38.1
X185.0Y0.0
X196.0Y0.0
X18.312Y-19.05
X29.312Y-19.05
X127.85Y0.0
X138.85Y0.0
X232.625Y-19.05
X243.625Y-19.05
X146.9Y0.0
X157.9Y0.0
X37.362Y-19.05
X48.362Y-19.05
X61.175Y-57.15
X72.175Y-57.15
X75.462Y-19.05
X86.462Y-19.05
X189.762Y-19.05
X200.762Y-19.05
X65.938Y-38.1
X76.938Y-38.1
X170.713Y-57.15
X181.713Y-57.15
X70.7Y0.0
X81.7Y0.0
X223.1Y0.0
X234.1Y0.0
X23.075Y-38.1
X34.075Y-38.1
X132.612Y-19.05
X143.612Y-19.05
X170.713Y-19.05
X181.713Y-19.05
X84.987Y-38.1
X95.987Y-38.1
X151.662Y-19.05
X162.662Y-19.05
X142.138Y-57.15
X153.138Y-57.15
X208.812Y-19.05
X219.812Y-19.05
X142.137Y-38.1
X153.137Y-38.1
X194.525Y-57.15
X205.525Y-57.15
X46.887Y-38.1
X57.887Y-38.1
X23.075Y-57.15
X34.075Y-57.15
X180.237Y-38.1
X191.237Y-38.1
X237.387Y-38.1
X248.387Y-38.1
X104.037Y-38.1
X115.037Y-38.1
X204.05Y0.0
X215.05Y0.0
X84.988Y-57.15
X95.988Y-57.15
X113.562Y-19.05
X124.562Y-19.05
X89.75Y0.0
X100.75Y0.0
X232.625Y-57.15
X243.625Y-57.15
X56.412Y-19.05
X67.412Y-19.05
X108.8Y0.0
X119.8Y0.0
X165.95Y0.0
X176.95Y0.0
X51.65Y0.0
X62.65Y0.0
X161.188Y-38.1
X172.188Y-38.1
T6
X66.438Y-41.8
X67.627Y-35.56
X71.438Y-44.0
X73.977Y-33.02
X171.213Y-60.85
X172.403Y-54.61
X176.213Y-63.05
X178.753Y-52.07
X71.2Y-3.7
X72.39Y2.54
X76.2Y-5.9
X78.74Y5.08
X223.6Y-3.7
X224.79Y2.54
X228.6Y-5.9
X231.14Y5.08
X23.575Y-41.8
X24.765Y-35.56
X28.575Y-44.0
X31.115Y-33.02
X133.112Y-22.75
X134.302Y-16.51
X138.112Y-24.95
X140.653Y-13.97
X171.213Y-22.75
X172.403Y-16.51
X176.213Y-24.95
X178.752Y-13.97
X85.487Y-41.8
X86.677Y-35.56
X90.487Y-44.0
X93.027Y-33.02
X152.162Y-22.75
X153.352Y-16.51
X157.162Y-24.95
X159.702Y-13.97
X142.638Y-60.85
X143.828Y-54.61
X147.638Y-63.05
X150.178Y-52.07
X209.312Y-22.75
X210.502Y-16.51
X214.312Y-24.95
X216.852Y-13.97
X142.637Y-41.8
X143.827Y-35.56
X147.637Y-44.0
X150.177Y-33.02
X195.025Y-60.85
X196.215Y-54.61
X200.025Y-63.05
X202.565Y-52.07
X47.387Y-41.8
X48.578Y-35.56
X52.387Y-44.0
X54.927Y-33.02
X23.575Y-60.85
X24.765Y-54.61
X28.575Y-63.05
X31.115Y-52.07
X180.737Y-41.8
X181.927Y-35.56
X185.737Y-44.0
X188.278Y-33.02
X237.887Y-41.8
X239.077Y-35.56
X242.887Y-44.0
X245.427Y-33.02
X104.537Y-41.8
X105.727Y-35.56
X109.537Y-44.0
X112.078Y-33.02
X204.55Y-3.7
X205.74Y2.54
X209.55Y-5.9
X212.09Y5.08
X85.488Y-60.85
X86.678Y-54.61
X90.488Y-63.05
X93.028Y-52.07
X114.062Y-22.75
X115.252Y-16.51
X119.062Y-24.95
X121.602Y-13.97
X90.25Y-3.7
X91.44Y2.54
X95.25Y-5.9
X97.79Y5.08
X233.125Y-60.85
X234.315Y-54.61
X238.125Y-63.05
X240.665Y-52.07
X56.912Y-22.75
X58.102Y-16.51
X61.912Y-24.95
X64.453Y-13.97
X109.3Y-3.7
X110.49Y2.54
X114.3Y-5.9
X116.84Y5.08
X166.45Y-3.7
X167.64Y2.54
X171.45Y-5.9
X173.99Y5.08
X52.15Y-3.7
X53.34Y2.54
X57.15Y-5.9
X59.69Y5.08
X161.688Y-41.8
X162.877Y-35.56
X166.688Y-44.0
X169.227Y-33.02
X214.075Y-60.85
X215.265Y-54.61
X219.075Y-63.05
X221.615Y-52.07
X199.787Y-41.8
X200.977Y-35.56
X204.787Y-44.0
X207.327Y-33.02
X114.063Y-60.85
X115.253Y-54.61
X119.063Y-63.05
X121.603Y-52.07
X123.587Y-41.8
X124.777Y-35.56
X128.588Y-44.0
X131.127Y-33.02
X95.012Y-22.75
X96.203Y-16.51
X100.012Y-24.95
X102.552Y-13.97
X33.1Y-3.7
X34.29Y2.54
X38.1Y-5.9
X40.64Y5.08
X42.625Y-60.85
X43.815Y-54.61
X47.625Y-63.05
X50.165Y-52.07
X218.837Y-41.8
X220.028Y-35.56
X223.837Y-44.0
X226.377Y-33.02
X185.5Y-3.7
X186.69Y2.54
X190.5Y-5.9
X193.04Y5.08
X18.812Y-22.75
X20.002Y-16.51
X23.812Y-24.95
X26.352Y-13.97
X128.35Y-3.7
X129.54Y2.54
X133.35Y-5.9
X135.89Y5.08
X233.125Y-22.75
X234.315Y-16.51
X238.125Y-24.95
X240.665Y-13.97
X147.4Y-3.7
X148.59Y2.54
X152.4Y-5.9
X154.94Y5.08
X37.862Y-22.75
X39.052Y-16.51
X42.862Y-24.95
X45.402Y-13.97
X61.675Y-60.85
X62.865Y-54.61
X66.675Y-63.05
X69.215Y-52.07
X75.962Y-22.75
X77.153Y-16.51
X80.962Y-24.95
X83.502Y-13.97
X190.262Y-22.75
X191.452Y-16.51
X195.262Y-24.95
X197.802Y-13.97
T7
X128.588Y-38.1
X100.012Y-19.05
X38.1Y0.0
X47.625Y-57.15
X223.837Y-38.1
X190.5Y0.0
X23.812Y-19.05
X133.35Y0.0
X238.125Y-19.05
X152.4Y0.0
X42.862Y-19.05
X66.675Y-57.15
X80.962Y-19.05
X195.262Y-19.05
X71.438Y-38.1
X176.213Y-57.15
X76.2Y0.0
X228.6Y0.0
X28.575Y-38.1
X138.112Y-19.05
X176.213Y-19.05
X90.487Y-38.1
X157.162Y-19.05
X147.638Y-57.15
X214.312Y-19.05
X147.637Y-38.1
X200.025Y-57.15
X52.387Y-38.1
X28.575Y-57.15
X185.737Y-38.1
X242.887Y-38.1
X109.537Y-38.1
X209.55Y0.0
X90.488Y-57.15
X119.062Y-19.05
X95.25Y0.0
X238.125Y-57.15
X61.912Y-19.05
X114.3Y0.0
X171.45Y0.0
X57.15Y0.0
X166.688Y-38.1
X219.075Y-57.15
X204.787Y-38.1
X119.063Y-57.15
T0
M30
