G04 #@! TF.GenerationSoftware,KiCad,Pcbnew,(5.1.6-0-10_14)*
G04 #@! TF.CreationDate,2022-07-23T13:37:28+09:00*
G04 #@! TF.ProjectId,cool445,636f6f6c-3434-4352-9e6b-696361645f70,rev?*
G04 #@! TF.SameCoordinates,Original*
G04 #@! TF.FileFunction,Legend,Bot*
G04 #@! TF.FilePolarity,Positive*
%FSLAX46Y46*%
G04 Gerber Fmt 4.6, Leading zero omitted, Abs format (unit mm)*
G04 Created by KiCad (PCBNEW (5.1.6-0-10_14)) date 2022-07-23 13:37:28*
%MOMM*%
%LPD*%
G01*
G04 APERTURE LIST*
%ADD10C,0.150000*%
%ADD11C,0.120000*%
G04 APERTURE END LIST*
D10*
X21167142Y2740238D02*
X21262380Y2692619D01*
X21452857Y2692619D01*
X21548095Y2740238D01*
X21595714Y2787857D01*
X21643333Y2883095D01*
X21643333Y3168809D01*
X21595714Y3264047D01*
X21548095Y3311666D01*
X21452857Y3359285D01*
X21262380Y3359285D01*
X21167142Y3311666D01*
X20595714Y2692619D02*
X20690952Y2740238D01*
X20738571Y2787857D01*
X20786190Y2883095D01*
X20786190Y3168809D01*
X20738571Y3264047D01*
X20690952Y3311666D01*
X20595714Y3359285D01*
X20452857Y3359285D01*
X20357619Y3311666D01*
X20310000Y3264047D01*
X20262380Y3168809D01*
X20262380Y2883095D01*
X20310000Y2787857D01*
X20357619Y2740238D01*
X20452857Y2692619D01*
X20595714Y2692619D01*
X19690952Y2692619D02*
X19786190Y2740238D01*
X19833809Y2787857D01*
X19881428Y2883095D01*
X19881428Y3168809D01*
X19833809Y3264047D01*
X19786190Y3311666D01*
X19690952Y3359285D01*
X19548095Y3359285D01*
X19452857Y3311666D01*
X19405238Y3264047D01*
X19357619Y3168809D01*
X19357619Y2883095D01*
X19405238Y2787857D01*
X19452857Y2740238D01*
X19548095Y2692619D01*
X19690952Y2692619D01*
X18786190Y2692619D02*
X18881428Y2740238D01*
X18929047Y2835476D01*
X18929047Y3692619D01*
X17976666Y3359285D02*
X17976666Y2692619D01*
X18214761Y3740238D02*
X18452857Y3025952D01*
X17833809Y3025952D01*
X17024285Y3359285D02*
X17024285Y2692619D01*
X17262380Y3740238D02*
X17500476Y3025952D01*
X16881428Y3025952D01*
X16024285Y3692619D02*
X16500476Y3692619D01*
X16548095Y3216428D01*
X16500476Y3264047D01*
X16405238Y3311666D01*
X16167142Y3311666D01*
X16071904Y3264047D01*
X16024285Y3216428D01*
X15976666Y3121190D01*
X15976666Y2883095D01*
X16024285Y2787857D01*
X16071904Y2740238D01*
X16167142Y2692619D01*
X16405238Y2692619D01*
X16500476Y2740238D01*
X16548095Y2787857D01*
X24595714Y1042619D02*
X24595714Y2042619D01*
X24595714Y1090238D02*
X24690952Y1042619D01*
X24881428Y1042619D01*
X24976666Y1090238D01*
X25024285Y1137857D01*
X25071904Y1233095D01*
X25071904Y1518809D01*
X25024285Y1614047D01*
X24976666Y1661666D01*
X24881428Y1709285D01*
X24690952Y1709285D01*
X24595714Y1661666D01*
X23738571Y1090238D02*
X23833809Y1042619D01*
X24024285Y1042619D01*
X24119523Y1090238D01*
X24167142Y1185476D01*
X24167142Y1566428D01*
X24119523Y1661666D01*
X24024285Y1709285D01*
X23833809Y1709285D01*
X23738571Y1661666D01*
X23690952Y1566428D01*
X23690952Y1471190D01*
X24167142Y1375952D01*
X23310000Y1090238D02*
X23214761Y1042619D01*
X23024285Y1042619D01*
X22929047Y1090238D01*
X22881428Y1185476D01*
X22881428Y1233095D01*
X22929047Y1328333D01*
X23024285Y1375952D01*
X23167142Y1375952D01*
X23262380Y1423571D01*
X23310000Y1518809D01*
X23310000Y1566428D01*
X23262380Y1661666D01*
X23167142Y1709285D01*
X23024285Y1709285D01*
X22929047Y1661666D01*
X22452857Y1042619D02*
X22452857Y1709285D01*
X22452857Y2042619D02*
X22500476Y1995000D01*
X22452857Y1947380D01*
X22405238Y1995000D01*
X22452857Y2042619D01*
X22452857Y1947380D01*
X21548095Y1709285D02*
X21548095Y899761D01*
X21595714Y804523D01*
X21643333Y756904D01*
X21738571Y709285D01*
X21881428Y709285D01*
X21976666Y756904D01*
X21548095Y1090238D02*
X21643333Y1042619D01*
X21833809Y1042619D01*
X21929047Y1090238D01*
X21976666Y1137857D01*
X22024285Y1233095D01*
X22024285Y1518809D01*
X21976666Y1614047D01*
X21929047Y1661666D01*
X21833809Y1709285D01*
X21643333Y1709285D01*
X21548095Y1661666D01*
X21071904Y1709285D02*
X21071904Y1042619D01*
X21071904Y1614047D02*
X21024285Y1661666D01*
X20929047Y1709285D01*
X20786190Y1709285D01*
X20690952Y1661666D01*
X20643333Y1566428D01*
X20643333Y1042619D01*
X19786190Y1090238D02*
X19881428Y1042619D01*
X20071904Y1042619D01*
X20167142Y1090238D01*
X20214761Y1185476D01*
X20214761Y1566428D01*
X20167142Y1661666D01*
X20071904Y1709285D01*
X19881428Y1709285D01*
X19786190Y1661666D01*
X19738571Y1566428D01*
X19738571Y1471190D01*
X20214761Y1375952D01*
X18881428Y1042619D02*
X18881428Y2042619D01*
X18881428Y1090238D02*
X18976666Y1042619D01*
X19167142Y1042619D01*
X19262380Y1090238D01*
X19310000Y1137857D01*
X19357619Y1233095D01*
X19357619Y1518809D01*
X19310000Y1614047D01*
X19262380Y1661666D01*
X19167142Y1709285D01*
X18976666Y1709285D01*
X18881428Y1661666D01*
X17643333Y1042619D02*
X17643333Y2042619D01*
X17643333Y1661666D02*
X17548095Y1709285D01*
X17357619Y1709285D01*
X17262380Y1661666D01*
X17214761Y1614047D01*
X17167142Y1518809D01*
X17167142Y1233095D01*
X17214761Y1137857D01*
X17262380Y1090238D01*
X17357619Y1042619D01*
X17548095Y1042619D01*
X17643333Y1090238D01*
X16833809Y1709285D02*
X16595714Y1042619D01*
X16357619Y1709285D02*
X16595714Y1042619D01*
X16690952Y804523D01*
X16738571Y756904D01*
X16833809Y709285D01*
X15214761Y1042619D02*
X15214761Y1709285D01*
X15214761Y1614047D02*
X15167142Y1661666D01*
X15071904Y1709285D01*
X14929047Y1709285D01*
X14833809Y1661666D01*
X14786190Y1566428D01*
X14786190Y1042619D01*
X14786190Y1566428D02*
X14738571Y1661666D01*
X14643333Y1709285D01*
X14500476Y1709285D01*
X14405238Y1661666D01*
X14357619Y1566428D01*
X14357619Y1042619D01*
X13881428Y1137857D02*
X13833809Y1090238D01*
X13881428Y1042619D01*
X13929047Y1090238D01*
X13881428Y1137857D01*
X13881428Y1042619D01*
X13405238Y1042619D02*
X13405238Y2042619D01*
X13310000Y1423571D02*
X13024285Y1042619D01*
X13024285Y1709285D02*
X13405238Y1328333D01*
X12595714Y1042619D02*
X12595714Y1709285D01*
X12595714Y2042619D02*
X12643333Y1995000D01*
X12595714Y1947380D01*
X12548095Y1995000D01*
X12595714Y2042619D01*
X12595714Y1947380D01*
X23976666Y-607380D02*
X23976666Y392619D01*
X23976666Y-559761D02*
X24071904Y-607380D01*
X24262380Y-607380D01*
X24357619Y-559761D01*
X24405238Y-512142D01*
X24452857Y-416904D01*
X24452857Y-131190D01*
X24405238Y-35952D01*
X24357619Y11666D01*
X24262380Y59285D01*
X24071904Y59285D01*
X23976666Y11666D01*
X23071904Y-607380D02*
X23071904Y-83571D01*
X23119523Y11666D01*
X23214761Y59285D01*
X23405238Y59285D01*
X23500476Y11666D01*
X23071904Y-559761D02*
X23167142Y-607380D01*
X23405238Y-607380D01*
X23500476Y-559761D01*
X23548095Y-464523D01*
X23548095Y-369285D01*
X23500476Y-274047D01*
X23405238Y-226428D01*
X23167142Y-226428D01*
X23071904Y-178809D01*
X22738571Y59285D02*
X22357619Y59285D01*
X22595714Y392619D02*
X22595714Y-464523D01*
X22548095Y-559761D01*
X22452857Y-607380D01*
X22357619Y-607380D01*
X21595714Y-607380D02*
X21595714Y-83571D01*
X21643333Y11666D01*
X21738571Y59285D01*
X21929047Y59285D01*
X22024285Y11666D01*
X21595714Y-559761D02*
X21690952Y-607380D01*
X21929047Y-607380D01*
X22024285Y-559761D01*
X22071904Y-464523D01*
X22071904Y-369285D01*
X22024285Y-274047D01*
X21929047Y-226428D01*
X21690952Y-226428D01*
X21595714Y-178809D01*
X20405238Y297380D02*
X20357619Y345000D01*
X20262380Y392619D01*
X20024285Y392619D01*
X19929047Y345000D01*
X19881428Y297380D01*
X19833809Y202142D01*
X19833809Y106904D01*
X19881428Y-35952D01*
X20452857Y-607380D01*
X19833809Y-607380D01*
X19214761Y392619D02*
X19119523Y392619D01*
X19024285Y345000D01*
X18976666Y297380D01*
X18929047Y202142D01*
X18881428Y11666D01*
X18881428Y-226428D01*
X18929047Y-416904D01*
X18976666Y-512142D01*
X19024285Y-559761D01*
X19119523Y-607380D01*
X19214761Y-607380D01*
X19310000Y-559761D01*
X19357619Y-512142D01*
X19405238Y-416904D01*
X19452857Y-226428D01*
X19452857Y11666D01*
X19405238Y202142D01*
X19357619Y297380D01*
X19310000Y345000D01*
X19214761Y392619D01*
X18500476Y297380D02*
X18452857Y345000D01*
X18357619Y392619D01*
X18119523Y392619D01*
X18024285Y345000D01*
X17976666Y297380D01*
X17929047Y202142D01*
X17929047Y106904D01*
X17976666Y-35952D01*
X18548095Y-607380D01*
X17929047Y-607380D01*
X17548095Y297380D02*
X17500476Y345000D01*
X17405238Y392619D01*
X17167142Y392619D01*
X17071904Y345000D01*
X17024285Y297380D01*
X16976666Y202142D01*
X16976666Y106904D01*
X17024285Y-35952D01*
X17595714Y-607380D01*
X16976666Y-607380D01*
X16357619Y392619D02*
X16262380Y392619D01*
X16167142Y345000D01*
X16119523Y297380D01*
X16071904Y202142D01*
X16024285Y11666D01*
X16024285Y-226428D01*
X16071904Y-416904D01*
X16119523Y-512142D01*
X16167142Y-559761D01*
X16262380Y-607380D01*
X16357619Y-607380D01*
X16452857Y-559761D01*
X16500476Y-512142D01*
X16548095Y-416904D01*
X16595714Y-226428D01*
X16595714Y11666D01*
X16548095Y202142D01*
X16500476Y297380D01*
X16452857Y345000D01*
X16357619Y392619D01*
X15690952Y392619D02*
X15024285Y392619D01*
X15452857Y-607380D01*
X14690952Y297380D02*
X14643333Y345000D01*
X14548095Y392619D01*
X14310000Y392619D01*
X14214761Y345000D01*
X14167142Y297380D01*
X14119523Y202142D01*
X14119523Y106904D01*
X14167142Y-35952D01*
X14738571Y-607380D01*
X14119523Y-607380D01*
X13786190Y392619D02*
X13167142Y392619D01*
X13500476Y11666D01*
X13357619Y11666D01*
X13262380Y-35952D01*
X13214761Y-83571D01*
X13167142Y-178809D01*
X13167142Y-416904D01*
X13214761Y-512142D01*
X13262380Y-559761D01*
X13357619Y-607380D01*
X13643333Y-607380D01*
X13738571Y-559761D01*
X13786190Y-512142D01*
X21214761Y-1590714D02*
X20976666Y-2257380D01*
X20738571Y-1590714D01*
X19976666Y-2209761D02*
X20071904Y-2257380D01*
X20262380Y-2257380D01*
X20357619Y-2209761D01*
X20405238Y-2114523D01*
X20405238Y-1733571D01*
X20357619Y-1638333D01*
X20262380Y-1590714D01*
X20071904Y-1590714D01*
X19976666Y-1638333D01*
X19929047Y-1733571D01*
X19929047Y-1828809D01*
X20405238Y-1924047D01*
X19500476Y-2257380D02*
X19500476Y-1590714D01*
X19500476Y-1781190D02*
X19452857Y-1685952D01*
X19405238Y-1638333D01*
X19310000Y-1590714D01*
X19214761Y-1590714D01*
X18881428Y-2162142D02*
X18833809Y-2209761D01*
X18881428Y-2257380D01*
X18929047Y-2209761D01*
X18881428Y-2162142D01*
X18881428Y-2257380D01*
X17881428Y-2257380D02*
X18452857Y-2257380D01*
X18167142Y-2257380D02*
X18167142Y-1257380D01*
X18262380Y-1400238D01*
X18357619Y-1495476D01*
X18452857Y-1543095D01*
X17452857Y-2162142D02*
X17405238Y-2209761D01*
X17452857Y-2257380D01*
X17500476Y-2209761D01*
X17452857Y-2162142D01*
X17452857Y-2257380D01*
X16452857Y-2257380D02*
X17024285Y-2257380D01*
X16738571Y-2257380D02*
X16738571Y-1257380D01*
X16833809Y-1400238D01*
X16929047Y-1495476D01*
X17024285Y-1543095D01*
X173513000Y-67900000D02*
X173513000Y-66400000D01*
X178913000Y-67900000D02*
X173513000Y-67900000D01*
X178913000Y-66400000D02*
X178913000Y-67900000D01*
X173513000Y-66400000D02*
X178913000Y-66400000D01*
X176713000Y-66650000D02*
X176713000Y-67650000D01*
X175713000Y-67650000D02*
X176613000Y-67150000D01*
X175713000Y-66650000D02*
X175713000Y-67650000D01*
X176613000Y-67150000D02*
X175713000Y-66650000D01*
X144938000Y-67900000D02*
X144938000Y-66400000D01*
X150338000Y-67900000D02*
X144938000Y-67900000D01*
X150338000Y-66400000D02*
X150338000Y-67900000D01*
X144938000Y-66400000D02*
X150338000Y-66400000D01*
X148138000Y-66650000D02*
X148138000Y-67650000D01*
X147138000Y-67650000D02*
X148038000Y-67150000D01*
X147138000Y-66650000D02*
X147138000Y-67650000D01*
X148038000Y-67150000D02*
X147138000Y-66650000D01*
X116363000Y-67900000D02*
X116363000Y-66400000D01*
X121763000Y-67900000D02*
X116363000Y-67900000D01*
X121763000Y-66400000D02*
X121763000Y-67900000D01*
X116363000Y-66400000D02*
X121763000Y-66400000D01*
X119563000Y-66650000D02*
X119563000Y-67650000D01*
X118563000Y-67650000D02*
X119463000Y-67150000D01*
X118563000Y-66650000D02*
X118563000Y-67650000D01*
X119463000Y-67150000D02*
X118563000Y-66650000D01*
X87788000Y-67900000D02*
X87788000Y-66400000D01*
X93188000Y-67900000D02*
X87788000Y-67900000D01*
X93188000Y-66400000D02*
X93188000Y-67900000D01*
X87788000Y-66400000D02*
X93188000Y-66400000D01*
X90988000Y-66650000D02*
X90988000Y-67650000D01*
X89988000Y-67650000D02*
X90888000Y-67150000D01*
X89988000Y-66650000D02*
X89988000Y-67650000D01*
X90888000Y-67150000D02*
X89988000Y-66650000D01*
X25875499Y-48850000D02*
X25875499Y-47350000D01*
X31275499Y-48850000D02*
X25875499Y-48850000D01*
X31275499Y-47350000D02*
X31275499Y-48850000D01*
X25875499Y-47350000D02*
X31275499Y-47350000D01*
X29075499Y-47600000D02*
X29075499Y-48600000D01*
X28075499Y-48600000D02*
X28975499Y-48100000D01*
X28075499Y-47600000D02*
X28075499Y-48600000D01*
X28975499Y-48100000D02*
X28075499Y-47600000D01*
X230030000Y-11310000D02*
X230030000Y-9810000D01*
X235430000Y-11310000D02*
X230030000Y-11310000D01*
X235430000Y-9810000D02*
X235430000Y-11310000D01*
X230030000Y-9810000D02*
X235430000Y-9810000D01*
X233230000Y-10060000D02*
X233230000Y-11060000D01*
X232230000Y-11060000D02*
X233130000Y-10560000D01*
X232230000Y-10060000D02*
X232230000Y-11060000D01*
X233130000Y-10560000D02*
X232230000Y-10060000D01*
X44400000Y-10690000D02*
X44400000Y-9190000D01*
X49800000Y-10690000D02*
X44400000Y-10690000D01*
X49800000Y-9190000D02*
X49800000Y-10690000D01*
X44400000Y-9190000D02*
X49800000Y-9190000D01*
X47600000Y-9440000D02*
X47600000Y-10440000D01*
X46600000Y-10440000D02*
X47500000Y-9940000D01*
X46600000Y-9440000D02*
X46600000Y-10440000D01*
X47500000Y-9940000D02*
X46600000Y-9440000D01*
X235425000Y-67900000D02*
X235425000Y-66400000D01*
X240825000Y-67900000D02*
X235425000Y-67900000D01*
X240825000Y-66400000D02*
X240825000Y-67900000D01*
X235425000Y-66400000D02*
X240825000Y-66400000D01*
X238625000Y-66650000D02*
X238625000Y-67650000D01*
X237625000Y-67650000D02*
X238525000Y-67150000D01*
X237625000Y-66650000D02*
X237625000Y-67650000D01*
X238525000Y-67150000D02*
X237625000Y-66650000D01*
X216375000Y-67900000D02*
X216375000Y-66400000D01*
X221775000Y-67900000D02*
X216375000Y-67900000D01*
X221775000Y-66400000D02*
X221775000Y-67900000D01*
X216375000Y-66400000D02*
X221775000Y-66400000D01*
X219575000Y-66650000D02*
X219575000Y-67650000D01*
X218575000Y-67650000D02*
X219475000Y-67150000D01*
X218575000Y-66650000D02*
X218575000Y-67650000D01*
X219475000Y-67150000D02*
X218575000Y-66650000D01*
X197325000Y-67900000D02*
X197325000Y-66400000D01*
X202725000Y-67900000D02*
X197325000Y-67900000D01*
X202725000Y-66400000D02*
X202725000Y-67900000D01*
X197325000Y-66400000D02*
X202725000Y-66400000D01*
X200525000Y-66650000D02*
X200525000Y-67650000D01*
X199525000Y-67650000D02*
X200425000Y-67150000D01*
X199525000Y-66650000D02*
X199525000Y-67650000D01*
X200425000Y-67150000D02*
X199525000Y-66650000D01*
X63975000Y-67900000D02*
X63975000Y-66400000D01*
X69375000Y-67900000D02*
X63975000Y-67900000D01*
X69375000Y-66400000D02*
X69375000Y-67900000D01*
X63975000Y-66400000D02*
X69375000Y-66400000D01*
X67175000Y-66650000D02*
X67175000Y-67650000D01*
X66175000Y-67650000D02*
X67075000Y-67150000D01*
X66175000Y-66650000D02*
X66175000Y-67650000D01*
X67075000Y-67150000D02*
X66175000Y-66650000D01*
X111600000Y-10750000D02*
X111600000Y-9250000D01*
X117000000Y-10750000D02*
X111600000Y-10750000D01*
X117000000Y-9250000D02*
X117000000Y-10750000D01*
X111600000Y-9250000D02*
X117000000Y-9250000D01*
X114800000Y-9500000D02*
X114800000Y-10500000D01*
X113800000Y-10500000D02*
X114700000Y-10000000D01*
X113800000Y-9500000D02*
X113800000Y-10500000D01*
X114700000Y-10000000D02*
X113800000Y-9500000D01*
X92550000Y-10750000D02*
X92550000Y-9250000D01*
X97950000Y-10750000D02*
X92550000Y-10750000D01*
X97950000Y-9250000D02*
X97950000Y-10750000D01*
X92550000Y-9250000D02*
X97950000Y-9250000D01*
X95750000Y-9500000D02*
X95750000Y-10500000D01*
X94750000Y-10500000D02*
X95650000Y-10000000D01*
X94750000Y-9500000D02*
X94750000Y-10500000D01*
X95650000Y-10000000D02*
X94750000Y-9500000D01*
X154462500Y-28300000D02*
X154462500Y-29800000D01*
X159862500Y-28300000D02*
X154462500Y-28300000D01*
X159862500Y-29800000D02*
X159862500Y-28300000D01*
X154462500Y-29800000D02*
X159862500Y-29800000D01*
X157662500Y-29550000D02*
X157662500Y-28550000D01*
X156662500Y-28550000D02*
X157562500Y-29050000D01*
X156662500Y-29550000D02*
X156662500Y-28550000D01*
X157562500Y-29050000D02*
X156662500Y-29550000D01*
X173512500Y-28300000D02*
X173512500Y-29800000D01*
X178912500Y-28300000D02*
X173512500Y-28300000D01*
X178912500Y-29800000D02*
X178912500Y-28300000D01*
X173512500Y-29800000D02*
X178912500Y-29800000D01*
X176712500Y-29550000D02*
X176712500Y-28550000D01*
X175712500Y-28550000D02*
X176612500Y-29050000D01*
X175712500Y-29550000D02*
X175712500Y-28550000D01*
X176612500Y-29050000D02*
X175712500Y-29550000D01*
X192562500Y-28300000D02*
X192562500Y-29800000D01*
X197962500Y-28300000D02*
X192562500Y-28300000D01*
X197962500Y-29800000D02*
X197962500Y-28300000D01*
X192562500Y-29800000D02*
X197962500Y-29800000D01*
X195762500Y-29550000D02*
X195762500Y-28550000D01*
X194762500Y-28550000D02*
X195662500Y-29050000D01*
X194762500Y-29550000D02*
X194762500Y-28550000D01*
X195662500Y-29050000D02*
X194762500Y-29550000D01*
X89150000Y896000D02*
X92760000Y896000D01*
X89150000Y4850000D02*
X89150000Y905000D01*
X100050000Y6804000D02*
X91425000Y6804000D01*
X100050000Y2896000D02*
X100050000Y6804000D01*
X100050000Y2850000D02*
X95000000Y2804000D01*
X97525000Y-8225000D02*
X92975000Y-8225000D01*
X97525000Y-3575000D02*
X94975000Y-3575000D01*
X92675000Y-1375000D02*
X87975000Y-1375000D01*
X91750000Y-6025000D02*
X87975000Y-6025000D01*
X97550000Y-3600000D02*
X97550000Y-8200000D01*
X87975000Y-1400000D02*
X87950000Y-6000000D01*
X92970000Y-7500000D02*
X92970000Y-8200000D01*
X92970000Y-7450000D02*
G75*
G03*
X91750000Y-6030000I-1320000J100000D01*
G01*
X92680000Y-1400000D02*
G75*
G03*
X95050000Y-3570000I2270000J100000D01*
G01*
X92765000Y920000D02*
G75*
G02*
X95025000Y2800000I2070000J-190000D01*
G01*
X89161000Y4920000D02*
G75*
G02*
X91425000Y6804000I2074000J-190000D01*
G01*
X135832500Y-26550000D02*
X135832500Y-27250000D01*
X130837500Y-20450000D02*
X130812500Y-25050000D01*
X140412500Y-22650000D02*
X140412500Y-27250000D01*
X134612500Y-25075000D02*
X130837500Y-25075000D01*
X135537500Y-20425000D02*
X130837500Y-20425000D01*
X140387500Y-22625000D02*
X137837500Y-22625000D01*
X140387500Y-27275000D02*
X135837500Y-27275000D01*
X142912500Y-16200000D02*
X137862500Y-16246000D01*
X142912500Y-16154000D02*
X142912500Y-12246000D01*
X142912500Y-12246000D02*
X134287500Y-12246000D01*
X132012500Y-14200000D02*
X132012500Y-18145000D01*
X132012500Y-18154000D02*
X135622500Y-18154000D01*
X132023500Y-14130000D02*
G75*
G02*
X134287500Y-12246000I2074000J-190000D01*
G01*
X135627500Y-18130000D02*
G75*
G02*
X137887500Y-16250000I2070000J-190000D01*
G01*
X135542500Y-20450000D02*
G75*
G03*
X137912500Y-22620000I2270000J100000D01*
G01*
X135832500Y-26500000D02*
G75*
G03*
X134612500Y-25080000I-1320000J100000D01*
G01*
X46287500Y-37204000D02*
X49897500Y-37204000D01*
X46287500Y-33250000D02*
X46287500Y-37195000D01*
X57187500Y-31296000D02*
X48562500Y-31296000D01*
X57187500Y-35204000D02*
X57187500Y-31296000D01*
X57187500Y-35250000D02*
X52137500Y-35296000D01*
X54662500Y-46325000D02*
X50112500Y-46325000D01*
X54662500Y-41675000D02*
X52112500Y-41675000D01*
X49812500Y-39475000D02*
X45112500Y-39475000D01*
X48887500Y-44125000D02*
X45112500Y-44125000D01*
X54687500Y-41700000D02*
X54687500Y-46300000D01*
X45112500Y-39500000D02*
X45087500Y-44100000D01*
X50107500Y-45600000D02*
X50107500Y-46300000D01*
X50107500Y-45550000D02*
G75*
G03*
X48887500Y-44130000I-1320000J100000D01*
G01*
X49817500Y-39500000D02*
G75*
G03*
X52187500Y-41670000I2270000J100000D01*
G01*
X49902500Y-37180000D02*
G75*
G02*
X52162500Y-35300000I2070000J-190000D01*
G01*
X46298500Y-33180000D02*
G75*
G02*
X48562500Y-31296000I2074000J-190000D01*
G01*
X126307500Y-45600000D02*
X126307500Y-46300000D01*
X121312500Y-39500000D02*
X121287500Y-44100000D01*
X130887500Y-41700000D02*
X130887500Y-46300000D01*
X125087500Y-44125000D02*
X121312500Y-44125000D01*
X126012500Y-39475000D02*
X121312500Y-39475000D01*
X130862500Y-41675000D02*
X128312500Y-41675000D01*
X130862500Y-46325000D02*
X126312500Y-46325000D01*
X133387500Y-35250000D02*
X128337500Y-35296000D01*
X133387500Y-35204000D02*
X133387500Y-31296000D01*
X133387500Y-31296000D02*
X124762500Y-31296000D01*
X122487500Y-33250000D02*
X122487500Y-37195000D01*
X122487500Y-37204000D02*
X126097500Y-37204000D01*
X122498500Y-33180000D02*
G75*
G02*
X124762500Y-31296000I2074000J-190000D01*
G01*
X126102500Y-37180000D02*
G75*
G02*
X128362500Y-35300000I2070000J-190000D01*
G01*
X126017500Y-39500000D02*
G75*
G03*
X128387500Y-41670000I2270000J100000D01*
G01*
X126307500Y-45550000D02*
G75*
G03*
X125087500Y-44130000I-1320000J100000D01*
G01*
X22475000Y-56254000D02*
X26085000Y-56254000D01*
X22475000Y-52300000D02*
X22475000Y-56245000D01*
X33375000Y-50346000D02*
X24750000Y-50346000D01*
X33375000Y-54254000D02*
X33375000Y-50346000D01*
X33375000Y-54300000D02*
X28325000Y-54346000D01*
X30850000Y-65375000D02*
X26300000Y-65375000D01*
X30850000Y-60725000D02*
X28300000Y-60725000D01*
X26000000Y-58525000D02*
X21300000Y-58525000D01*
X25075000Y-63175000D02*
X21300000Y-63175000D01*
X30875000Y-60750000D02*
X30875000Y-65350000D01*
X21300000Y-58550000D02*
X21275000Y-63150000D01*
X26295000Y-64650000D02*
X26295000Y-65350000D01*
X26295000Y-64600000D02*
G75*
G03*
X25075000Y-63180000I-1320000J100000D01*
G01*
X26005000Y-58550000D02*
G75*
G03*
X28375000Y-60720000I2270000J100000D01*
G01*
X26090000Y-56230000D02*
G75*
G02*
X28350000Y-54350000I2070000J-190000D01*
G01*
X22486000Y-52230000D02*
G75*
G02*
X24750000Y-50346000I2074000J-190000D01*
G01*
X41525000Y-56254000D02*
X45135000Y-56254000D01*
X41525000Y-52300000D02*
X41525000Y-56245000D01*
X52425000Y-50346000D02*
X43800000Y-50346000D01*
X52425000Y-54254000D02*
X52425000Y-50346000D01*
X52425000Y-54300000D02*
X47375000Y-54346000D01*
X49900000Y-65375000D02*
X45350000Y-65375000D01*
X49900000Y-60725000D02*
X47350000Y-60725000D01*
X45050000Y-58525000D02*
X40350000Y-58525000D01*
X44125000Y-63175000D02*
X40350000Y-63175000D01*
X49925000Y-60750000D02*
X49925000Y-65350000D01*
X40350000Y-58550000D02*
X40325000Y-63150000D01*
X45345000Y-64650000D02*
X45345000Y-65350000D01*
X45345000Y-64600000D02*
G75*
G03*
X44125000Y-63180000I-1320000J100000D01*
G01*
X45055000Y-58550000D02*
G75*
G03*
X47425000Y-60720000I2270000J100000D01*
G01*
X45140000Y-56230000D02*
G75*
G02*
X47400000Y-54350000I2070000J-190000D01*
G01*
X41536000Y-52230000D02*
G75*
G02*
X43800000Y-50346000I2074000J-190000D01*
G01*
X235845500Y-26550000D02*
X235845500Y-27250000D01*
X230850500Y-20450000D02*
X230825500Y-25050000D01*
X240425500Y-22650000D02*
X240425500Y-27250000D01*
X234625500Y-25075000D02*
X230850500Y-25075000D01*
X235550500Y-20425000D02*
X230850500Y-20425000D01*
X240400500Y-22625000D02*
X237850500Y-22625000D01*
X240400500Y-27275000D02*
X235850500Y-27275000D01*
X242925500Y-16200000D02*
X237875500Y-16246000D01*
X242925500Y-16154000D02*
X242925500Y-12246000D01*
X242925500Y-12246000D02*
X234300500Y-12246000D01*
X232025500Y-14200000D02*
X232025500Y-18145000D01*
X232025500Y-18154000D02*
X235635500Y-18154000D01*
X232036500Y-14130000D02*
G75*
G02*
X234300500Y-12246000I2074000J-190000D01*
G01*
X235640500Y-18130000D02*
G75*
G02*
X237900500Y-16250000I2070000J-190000D01*
G01*
X235555500Y-20450000D02*
G75*
G03*
X237925500Y-22620000I2270000J100000D01*
G01*
X235845500Y-26500000D02*
G75*
G03*
X234625500Y-25080000I-1320000J100000D01*
G01*
X84388000Y-56254000D02*
X87998000Y-56254000D01*
X84388000Y-52300000D02*
X84388000Y-56245000D01*
X95288000Y-50346000D02*
X86663000Y-50346000D01*
X95288000Y-54254000D02*
X95288000Y-50346000D01*
X95288000Y-54300000D02*
X90238000Y-54346000D01*
X92763000Y-65375000D02*
X88213000Y-65375000D01*
X92763000Y-60725000D02*
X90213000Y-60725000D01*
X87913000Y-58525000D02*
X83213000Y-58525000D01*
X86988000Y-63175000D02*
X83213000Y-63175000D01*
X92788000Y-60750000D02*
X92788000Y-65350000D01*
X83213000Y-58550000D02*
X83188000Y-63150000D01*
X88208000Y-64650000D02*
X88208000Y-65350000D01*
X88208000Y-64600000D02*
G75*
G03*
X86988000Y-63180000I-1320000J100000D01*
G01*
X87918000Y-58550000D02*
G75*
G03*
X90288000Y-60720000I2270000J100000D01*
G01*
X88003000Y-56230000D02*
G75*
G02*
X90263000Y-54350000I2070000J-190000D01*
G01*
X84399000Y-52230000D02*
G75*
G02*
X86663000Y-50346000I2074000J-190000D01*
G01*
X112963000Y-56254000D02*
X116573000Y-56254000D01*
X112963000Y-52300000D02*
X112963000Y-56245000D01*
X123863000Y-50346000D02*
X115238000Y-50346000D01*
X123863000Y-54254000D02*
X123863000Y-50346000D01*
X123863000Y-54300000D02*
X118813000Y-54346000D01*
X121338000Y-65375000D02*
X116788000Y-65375000D01*
X121338000Y-60725000D02*
X118788000Y-60725000D01*
X116488000Y-58525000D02*
X111788000Y-58525000D01*
X115563000Y-63175000D02*
X111788000Y-63175000D01*
X121363000Y-60750000D02*
X121363000Y-65350000D01*
X111788000Y-58550000D02*
X111763000Y-63150000D01*
X116783000Y-64650000D02*
X116783000Y-65350000D01*
X116783000Y-64600000D02*
G75*
G03*
X115563000Y-63180000I-1320000J100000D01*
G01*
X116493000Y-58550000D02*
G75*
G03*
X118863000Y-60720000I2270000J100000D01*
G01*
X116578000Y-56230000D02*
G75*
G02*
X118838000Y-54350000I2070000J-190000D01*
G01*
X112974000Y-52230000D02*
G75*
G02*
X115238000Y-50346000I2074000J-190000D01*
G01*
X141538000Y-56254000D02*
X145148000Y-56254000D01*
X141538000Y-52300000D02*
X141538000Y-56245000D01*
X152438000Y-50346000D02*
X143813000Y-50346000D01*
X152438000Y-54254000D02*
X152438000Y-50346000D01*
X152438000Y-54300000D02*
X147388000Y-54346000D01*
X149913000Y-65375000D02*
X145363000Y-65375000D01*
X149913000Y-60725000D02*
X147363000Y-60725000D01*
X145063000Y-58525000D02*
X140363000Y-58525000D01*
X144138000Y-63175000D02*
X140363000Y-63175000D01*
X149938000Y-60750000D02*
X149938000Y-65350000D01*
X140363000Y-58550000D02*
X140338000Y-63150000D01*
X145358000Y-64650000D02*
X145358000Y-65350000D01*
X145358000Y-64600000D02*
G75*
G03*
X144138000Y-63180000I-1320000J100000D01*
G01*
X145068000Y-58550000D02*
G75*
G03*
X147438000Y-60720000I2270000J100000D01*
G01*
X145153000Y-56230000D02*
G75*
G02*
X147413000Y-54350000I2070000J-190000D01*
G01*
X141549000Y-52230000D02*
G75*
G02*
X143813000Y-50346000I2074000J-190000D01*
G01*
X43920000Y30710000D02*
X43920000Y29700000D01*
X43920000Y12910000D02*
X43920000Y13910000D01*
X42920000Y30710000D02*
X43920000Y30710000D01*
X42870000Y12910000D02*
X43920000Y12910000D01*
X10870000Y30710000D02*
X10870000Y29760000D01*
X10870000Y12910000D02*
X10870000Y13910000D01*
X10870000Y30710000D02*
X11870000Y30710000D01*
X10870000Y12910000D02*
X11870000Y12910000D01*
X7970000Y18060000D02*
X9270000Y18060000D01*
X9270000Y18060000D02*
X9270000Y25560000D01*
X9270000Y25560000D02*
X7970000Y25560000D01*
X7970000Y25560000D02*
X7970000Y18060000D01*
X8320000Y21310000D02*
X8320000Y22310000D01*
X8320000Y22310000D02*
X8970000Y21810000D01*
X8970000Y21810000D02*
X8320000Y21310000D01*
X8470000Y21460000D02*
X8470000Y22160000D01*
X8620000Y21560000D02*
X8620000Y22060000D01*
X8770000Y21660000D02*
X8770000Y21960000D01*
X100412500Y-29050000D02*
X99512500Y-29550000D01*
X99512500Y-29550000D02*
X99512500Y-28550000D01*
X99512500Y-28550000D02*
X100412500Y-29050000D01*
X100512500Y-29550000D02*
X100512500Y-28550000D01*
X97312500Y-29800000D02*
X102712500Y-29800000D01*
X102712500Y-29800000D02*
X102712500Y-28300000D01*
X102712500Y-28300000D02*
X97312500Y-28300000D01*
X97312500Y-28300000D02*
X97312500Y-29800000D01*
X116362500Y-28300000D02*
X116362500Y-29800000D01*
X121762500Y-28300000D02*
X116362500Y-28300000D01*
X121762500Y-29800000D02*
X121762500Y-28300000D01*
X116362500Y-29800000D02*
X121762500Y-29800000D01*
X119562500Y-29550000D02*
X119562500Y-28550000D01*
X118562500Y-28550000D02*
X119462500Y-29050000D01*
X118562500Y-29550000D02*
X118562500Y-28550000D01*
X119462500Y-29050000D02*
X118562500Y-29550000D01*
X212032500Y-26550000D02*
X212032500Y-27250000D01*
X207037500Y-20450000D02*
X207012500Y-25050000D01*
X216612500Y-22650000D02*
X216612500Y-27250000D01*
X210812500Y-25075000D02*
X207037500Y-25075000D01*
X211737500Y-20425000D02*
X207037500Y-20425000D01*
X216587500Y-22625000D02*
X214037500Y-22625000D01*
X216587500Y-27275000D02*
X212037500Y-27275000D01*
X219112500Y-16200000D02*
X214062500Y-16246000D01*
X219112500Y-16154000D02*
X219112500Y-12246000D01*
X219112500Y-12246000D02*
X210487500Y-12246000D01*
X208212500Y-14200000D02*
X208212500Y-18145000D01*
X208212500Y-18154000D02*
X211822500Y-18154000D01*
X208223500Y-14130000D02*
G75*
G02*
X210487500Y-12246000I2074000J-190000D01*
G01*
X211827500Y-18130000D02*
G75*
G02*
X214087500Y-16250000I2070000J-190000D01*
G01*
X211742500Y-20450000D02*
G75*
G03*
X214112500Y-22620000I2270000J100000D01*
G01*
X212032500Y-26500000D02*
G75*
G03*
X210812500Y-25080000I-1320000J100000D01*
G01*
X145357500Y-45600000D02*
X145357500Y-46300000D01*
X140362500Y-39500000D02*
X140337500Y-44100000D01*
X149937500Y-41700000D02*
X149937500Y-46300000D01*
X144137500Y-44125000D02*
X140362500Y-44125000D01*
X145062500Y-39475000D02*
X140362500Y-39475000D01*
X149912500Y-41675000D02*
X147362500Y-41675000D01*
X149912500Y-46325000D02*
X145362500Y-46325000D01*
X152437500Y-35250000D02*
X147387500Y-35296000D01*
X152437500Y-35204000D02*
X152437500Y-31296000D01*
X152437500Y-31296000D02*
X143812500Y-31296000D01*
X141537500Y-33250000D02*
X141537500Y-37195000D01*
X141537500Y-37204000D02*
X145147500Y-37204000D01*
X141548500Y-33180000D02*
G75*
G02*
X143812500Y-31296000I2074000J-190000D01*
G01*
X145152500Y-37180000D02*
G75*
G02*
X147412500Y-35300000I2070000J-190000D01*
G01*
X145067500Y-39500000D02*
G75*
G03*
X147437500Y-41670000I2270000J100000D01*
G01*
X145357500Y-45550000D02*
G75*
G03*
X144137500Y-44130000I-1320000J100000D01*
G01*
X164407500Y-45600000D02*
X164407500Y-46300000D01*
X159412500Y-39500000D02*
X159387500Y-44100000D01*
X168987500Y-41700000D02*
X168987500Y-46300000D01*
X163187500Y-44125000D02*
X159412500Y-44125000D01*
X164112500Y-39475000D02*
X159412500Y-39475000D01*
X168962500Y-41675000D02*
X166412500Y-41675000D01*
X168962500Y-46325000D02*
X164412500Y-46325000D01*
X171487500Y-35250000D02*
X166437500Y-35296000D01*
X171487500Y-35204000D02*
X171487500Y-31296000D01*
X171487500Y-31296000D02*
X162862500Y-31296000D01*
X160587500Y-33250000D02*
X160587500Y-37195000D01*
X160587500Y-37204000D02*
X164197500Y-37204000D01*
X160598500Y-33180000D02*
G75*
G02*
X162862500Y-31296000I2074000J-190000D01*
G01*
X164202500Y-37180000D02*
G75*
G02*
X166462500Y-35300000I2070000J-190000D01*
G01*
X164117500Y-39500000D02*
G75*
G03*
X166487500Y-41670000I2270000J100000D01*
G01*
X164407500Y-45550000D02*
G75*
G03*
X163187500Y-44130000I-1320000J100000D01*
G01*
X216795000Y-64650000D02*
X216795000Y-65350000D01*
X211800000Y-58550000D02*
X211775000Y-63150000D01*
X221375000Y-60750000D02*
X221375000Y-65350000D01*
X215575000Y-63175000D02*
X211800000Y-63175000D01*
X216500000Y-58525000D02*
X211800000Y-58525000D01*
X221350000Y-60725000D02*
X218800000Y-60725000D01*
X221350000Y-65375000D02*
X216800000Y-65375000D01*
X223875000Y-54300000D02*
X218825000Y-54346000D01*
X223875000Y-54254000D02*
X223875000Y-50346000D01*
X223875000Y-50346000D02*
X215250000Y-50346000D01*
X212975000Y-52300000D02*
X212975000Y-56245000D01*
X212975000Y-56254000D02*
X216585000Y-56254000D01*
X212986000Y-52230000D02*
G75*
G02*
X215250000Y-50346000I2074000J-190000D01*
G01*
X216590000Y-56230000D02*
G75*
G02*
X218850000Y-54350000I2070000J-190000D01*
G01*
X216505000Y-58550000D02*
G75*
G03*
X218875000Y-60720000I2270000J100000D01*
G01*
X216795000Y-64600000D02*
G75*
G03*
X215575000Y-63180000I-1320000J100000D01*
G01*
X232025000Y-56254000D02*
X235635000Y-56254000D01*
X232025000Y-52300000D02*
X232025000Y-56245000D01*
X242925000Y-50346000D02*
X234300000Y-50346000D01*
X242925000Y-54254000D02*
X242925000Y-50346000D01*
X242925000Y-54300000D02*
X237875000Y-54346000D01*
X240400000Y-65375000D02*
X235850000Y-65375000D01*
X240400000Y-60725000D02*
X237850000Y-60725000D01*
X235550000Y-58525000D02*
X230850000Y-58525000D01*
X234625000Y-63175000D02*
X230850000Y-63175000D01*
X240425000Y-60750000D02*
X240425000Y-65350000D01*
X230850000Y-58550000D02*
X230825000Y-63150000D01*
X235845000Y-64650000D02*
X235845000Y-65350000D01*
X235845000Y-64600000D02*
G75*
G03*
X234625000Y-63180000I-1320000J100000D01*
G01*
X235555000Y-58550000D02*
G75*
G03*
X237925000Y-60720000I2270000J100000D01*
G01*
X235640000Y-56230000D02*
G75*
G02*
X237900000Y-54350000I2070000J-190000D01*
G01*
X232036000Y-52230000D02*
G75*
G02*
X234300000Y-50346000I2074000J-190000D01*
G01*
X32000000Y896000D02*
X35610000Y896000D01*
X32000000Y4850000D02*
X32000000Y905000D01*
X42900000Y6804000D02*
X34275000Y6804000D01*
X42900000Y2896000D02*
X42900000Y6804000D01*
X42900000Y2850000D02*
X37850000Y2804000D01*
X40375000Y-8225000D02*
X35825000Y-8225000D01*
X40375000Y-3575000D02*
X37825000Y-3575000D01*
X35525000Y-1375000D02*
X30825000Y-1375000D01*
X34600000Y-6025000D02*
X30825000Y-6025000D01*
X40400000Y-3600000D02*
X40400000Y-8200000D01*
X30825000Y-1400000D02*
X30800000Y-6000000D01*
X35820000Y-7500000D02*
X35820000Y-8200000D01*
X35820000Y-7450000D02*
G75*
G03*
X34600000Y-6030000I-1320000J100000D01*
G01*
X35530000Y-1400000D02*
G75*
G03*
X37900000Y-3570000I2270000J100000D01*
G01*
X35615000Y920000D02*
G75*
G02*
X37875000Y2800000I2070000J-190000D01*
G01*
X32011000Y4920000D02*
G75*
G02*
X34275000Y6804000I2074000J-190000D01*
G01*
X150120000Y-7500000D02*
X150120000Y-8200000D01*
X145125000Y-1400000D02*
X145100000Y-6000000D01*
X154700000Y-3600000D02*
X154700000Y-8200000D01*
X148900000Y-6025000D02*
X145125000Y-6025000D01*
X149825000Y-1375000D02*
X145125000Y-1375000D01*
X154675000Y-3575000D02*
X152125000Y-3575000D01*
X154675000Y-8225000D02*
X150125000Y-8225000D01*
X157200000Y2850000D02*
X152150000Y2804000D01*
X157200000Y2896000D02*
X157200000Y6804000D01*
X157200000Y6804000D02*
X148575000Y6804000D01*
X146300000Y4850000D02*
X146300000Y905000D01*
X146300000Y896000D02*
X149910000Y896000D01*
X146311000Y4920000D02*
G75*
G02*
X148575000Y6804000I2074000J-190000D01*
G01*
X149915000Y920000D02*
G75*
G02*
X152175000Y2800000I2070000J-190000D01*
G01*
X149830000Y-1400000D02*
G75*
G03*
X152200000Y-3570000I2270000J100000D01*
G01*
X150120000Y-7450000D02*
G75*
G03*
X148900000Y-6030000I-1320000J100000D01*
G01*
X44925000Y-67900000D02*
X44925000Y-66400000D01*
X50325000Y-67900000D02*
X44925000Y-67900000D01*
X50325000Y-66400000D02*
X50325000Y-67900000D01*
X44925000Y-66400000D02*
X50325000Y-66400000D01*
X48125000Y-66650000D02*
X48125000Y-67650000D01*
X47125000Y-67650000D02*
X48025000Y-67150000D01*
X47125000Y-66650000D02*
X47125000Y-67650000D01*
X48025000Y-67150000D02*
X47125000Y-66650000D01*
X25875000Y-67900000D02*
X25875000Y-66400000D01*
X31275000Y-67900000D02*
X25875000Y-67900000D01*
X31275000Y-66400000D02*
X31275000Y-67900000D01*
X25875000Y-66400000D02*
X31275000Y-66400000D01*
X29075000Y-66650000D02*
X29075000Y-67650000D01*
X28075000Y-67650000D02*
X28975000Y-67150000D01*
X28075000Y-66650000D02*
X28075000Y-67650000D01*
X28975000Y-67150000D02*
X28075000Y-66650000D01*
X240187500Y-48850000D02*
X240187500Y-47350000D01*
X245587500Y-48850000D02*
X240187500Y-48850000D01*
X245587500Y-47350000D02*
X245587500Y-48850000D01*
X240187500Y-47350000D02*
X245587500Y-47350000D01*
X243387500Y-47600000D02*
X243387500Y-48600000D01*
X242387500Y-48600000D02*
X243287500Y-48100000D01*
X242387500Y-47600000D02*
X242387500Y-48600000D01*
X243287500Y-48100000D02*
X242387500Y-47600000D01*
X217080000Y-48480000D02*
X217080000Y-46980000D01*
X222480000Y-48480000D02*
X217080000Y-48480000D01*
X222480000Y-46980000D02*
X222480000Y-48480000D01*
X217080000Y-46980000D02*
X222480000Y-46980000D01*
X220280000Y-47230000D02*
X220280000Y-48230000D01*
X219280000Y-48230000D02*
X220180000Y-47730000D01*
X219280000Y-47230000D02*
X219280000Y-48230000D01*
X220180000Y-47730000D02*
X219280000Y-47230000D01*
X202087500Y-48850000D02*
X202087500Y-47350000D01*
X207487500Y-48850000D02*
X202087500Y-48850000D01*
X207487500Y-47350000D02*
X207487500Y-48850000D01*
X202087500Y-47350000D02*
X207487500Y-47350000D01*
X205287500Y-47600000D02*
X205287500Y-48600000D01*
X204287500Y-48600000D02*
X205187500Y-48100000D01*
X204287500Y-47600000D02*
X204287500Y-48600000D01*
X205187500Y-48100000D02*
X204287500Y-47600000D01*
X183037500Y-48850000D02*
X183037500Y-47350000D01*
X188437500Y-48850000D02*
X183037500Y-48850000D01*
X188437500Y-47350000D02*
X188437500Y-48850000D01*
X183037500Y-47350000D02*
X188437500Y-47350000D01*
X186237500Y-47600000D02*
X186237500Y-48600000D01*
X185237500Y-48600000D02*
X186137500Y-48100000D01*
X185237500Y-47600000D02*
X185237500Y-48600000D01*
X186137500Y-48100000D02*
X185237500Y-47600000D01*
X163987500Y-48850000D02*
X163987500Y-47350000D01*
X169387500Y-48850000D02*
X163987500Y-48850000D01*
X169387500Y-47350000D02*
X169387500Y-48850000D01*
X163987500Y-47350000D02*
X169387500Y-47350000D01*
X167187500Y-47600000D02*
X167187500Y-48600000D01*
X166187500Y-48600000D02*
X167087500Y-48100000D01*
X166187500Y-47600000D02*
X166187500Y-48600000D01*
X167087500Y-48100000D02*
X166187500Y-47600000D01*
X144937500Y-48850000D02*
X144937500Y-47350000D01*
X150337500Y-48850000D02*
X144937500Y-48850000D01*
X150337500Y-47350000D02*
X150337500Y-48850000D01*
X144937500Y-47350000D02*
X150337500Y-47350000D01*
X148137500Y-47600000D02*
X148137500Y-48600000D01*
X147137500Y-48600000D02*
X148037500Y-48100000D01*
X147137500Y-47600000D02*
X147137500Y-48600000D01*
X148037500Y-48100000D02*
X147137500Y-47600000D01*
X124120000Y-48830000D02*
X124120000Y-47330000D01*
X129520000Y-48830000D02*
X124120000Y-48830000D01*
X129520000Y-47330000D02*
X129520000Y-48830000D01*
X124120000Y-47330000D02*
X129520000Y-47330000D01*
X127320000Y-47580000D02*
X127320000Y-48580000D01*
X126320000Y-48580000D02*
X127220000Y-48080000D01*
X126320000Y-47580000D02*
X126320000Y-48580000D01*
X127220000Y-48080000D02*
X126320000Y-47580000D01*
X106837500Y-48850000D02*
X106837500Y-47350000D01*
X112237500Y-48850000D02*
X106837500Y-48850000D01*
X112237500Y-47350000D02*
X112237500Y-48850000D01*
X106837500Y-47350000D02*
X112237500Y-47350000D01*
X110037500Y-47600000D02*
X110037500Y-48600000D01*
X109037500Y-48600000D02*
X109937500Y-48100000D01*
X109037500Y-47600000D02*
X109037500Y-48600000D01*
X109937500Y-48100000D02*
X109037500Y-47600000D01*
X87787500Y-48850000D02*
X87787500Y-47350000D01*
X93187500Y-48850000D02*
X87787500Y-48850000D01*
X93187500Y-47350000D02*
X93187500Y-48850000D01*
X87787500Y-47350000D02*
X93187500Y-47350000D01*
X90987500Y-47600000D02*
X90987500Y-48600000D01*
X89987500Y-48600000D02*
X90887500Y-48100000D01*
X89987500Y-47600000D02*
X89987500Y-48600000D01*
X90887500Y-48100000D02*
X89987500Y-47600000D01*
X68737500Y-48850000D02*
X68737500Y-47350000D01*
X74137500Y-48850000D02*
X68737500Y-48850000D01*
X74137500Y-47350000D02*
X74137500Y-48850000D01*
X68737500Y-47350000D02*
X74137500Y-47350000D01*
X71937500Y-47600000D02*
X71937500Y-48600000D01*
X70937500Y-48600000D02*
X71837500Y-48100000D01*
X70937500Y-47600000D02*
X70937500Y-48600000D01*
X71837500Y-48100000D02*
X70937500Y-47600000D01*
X49687500Y-48850000D02*
X49687500Y-47350000D01*
X55087500Y-48850000D02*
X49687500Y-48850000D01*
X55087500Y-47350000D02*
X55087500Y-48850000D01*
X49687500Y-47350000D02*
X55087500Y-47350000D01*
X52887500Y-47600000D02*
X52887500Y-48600000D01*
X51887500Y-48600000D02*
X52787500Y-48100000D01*
X51887500Y-47600000D02*
X51887500Y-48600000D01*
X52787500Y-48100000D02*
X51887500Y-47600000D01*
X206850000Y-10750000D02*
X206850000Y-9250000D01*
X212250000Y-10750000D02*
X206850000Y-10750000D01*
X212250000Y-9250000D02*
X212250000Y-10750000D01*
X206850000Y-9250000D02*
X212250000Y-9250000D01*
X210050000Y-9500000D02*
X210050000Y-10500000D01*
X209050000Y-10500000D02*
X209950000Y-10000000D01*
X209050000Y-9500000D02*
X209050000Y-10500000D01*
X209950000Y-10000000D02*
X209050000Y-9500000D01*
X187800000Y-10750000D02*
X187800000Y-9250000D01*
X193200000Y-10750000D02*
X187800000Y-10750000D01*
X193200000Y-9250000D02*
X193200000Y-10750000D01*
X187800000Y-9250000D02*
X193200000Y-9250000D01*
X191000000Y-9500000D02*
X191000000Y-10500000D01*
X190000000Y-10500000D02*
X190900000Y-10000000D01*
X190000000Y-9500000D02*
X190000000Y-10500000D01*
X190900000Y-10000000D02*
X190000000Y-9500000D01*
X168750000Y-10750000D02*
X168750000Y-9250000D01*
X174150000Y-10750000D02*
X168750000Y-10750000D01*
X174150000Y-9250000D02*
X174150000Y-10750000D01*
X168750000Y-9250000D02*
X174150000Y-9250000D01*
X171950000Y-9500000D02*
X171950000Y-10500000D01*
X170950000Y-10500000D02*
X171850000Y-10000000D01*
X170950000Y-9500000D02*
X170950000Y-10500000D01*
X171850000Y-10000000D02*
X170950000Y-9500000D01*
X149700000Y-10750000D02*
X149700000Y-9250000D01*
X155100000Y-10750000D02*
X149700000Y-10750000D01*
X155100000Y-9250000D02*
X155100000Y-10750000D01*
X149700000Y-9250000D02*
X155100000Y-9250000D01*
X152900000Y-9500000D02*
X152900000Y-10500000D01*
X151900000Y-10500000D02*
X152800000Y-10000000D01*
X151900000Y-9500000D02*
X151900000Y-10500000D01*
X152800000Y-10000000D02*
X151900000Y-9500000D01*
X137000000Y-10750000D02*
X137000000Y-9250000D01*
X142400000Y-10750000D02*
X137000000Y-10750000D01*
X142400000Y-9250000D02*
X142400000Y-10750000D01*
X137000000Y-9250000D02*
X142400000Y-9250000D01*
X140200000Y-9500000D02*
X140200000Y-10500000D01*
X139200000Y-10500000D02*
X140100000Y-10000000D01*
X139200000Y-9500000D02*
X139200000Y-10500000D01*
X140100000Y-10000000D02*
X139200000Y-9500000D01*
X235425500Y-28300000D02*
X235425500Y-29800000D01*
X240825500Y-28300000D02*
X235425500Y-28300000D01*
X240825500Y-29800000D02*
X240825500Y-28300000D01*
X235425500Y-29800000D02*
X240825500Y-29800000D01*
X238625500Y-29550000D02*
X238625500Y-28550000D01*
X237625500Y-28550000D02*
X238525500Y-29050000D01*
X237625500Y-29550000D02*
X237625500Y-28550000D01*
X238525500Y-29050000D02*
X237625500Y-29550000D01*
X154882500Y-26550000D02*
X154882500Y-27250000D01*
X149887500Y-20450000D02*
X149862500Y-25050000D01*
X159462500Y-22650000D02*
X159462500Y-27250000D01*
X153662500Y-25075000D02*
X149887500Y-25075000D01*
X154587500Y-20425000D02*
X149887500Y-20425000D01*
X159437500Y-22625000D02*
X156887500Y-22625000D01*
X159437500Y-27275000D02*
X154887500Y-27275000D01*
X161962500Y-16200000D02*
X156912500Y-16246000D01*
X161962500Y-16154000D02*
X161962500Y-12246000D01*
X161962500Y-12246000D02*
X153337500Y-12246000D01*
X151062500Y-14200000D02*
X151062500Y-18145000D01*
X151062500Y-18154000D02*
X154672500Y-18154000D01*
X151073500Y-14130000D02*
G75*
G02*
X153337500Y-12246000I2074000J-190000D01*
G01*
X154677500Y-18130000D02*
G75*
G02*
X156937500Y-16250000I2070000J-190000D01*
G01*
X154592500Y-20450000D02*
G75*
G03*
X156962500Y-22620000I2270000J100000D01*
G01*
X154882500Y-26500000D02*
G75*
G03*
X153662500Y-25080000I-1320000J100000D01*
G01*
X192982500Y-26550000D02*
X192982500Y-27250000D01*
X187987500Y-20450000D02*
X187962500Y-25050000D01*
X197562500Y-22650000D02*
X197562500Y-27250000D01*
X191762500Y-25075000D02*
X187987500Y-25075000D01*
X192687500Y-20425000D02*
X187987500Y-20425000D01*
X197537500Y-22625000D02*
X194987500Y-22625000D01*
X197537500Y-27275000D02*
X192987500Y-27275000D01*
X200062500Y-16200000D02*
X195012500Y-16246000D01*
X200062500Y-16154000D02*
X200062500Y-12246000D01*
X200062500Y-12246000D02*
X191437500Y-12246000D01*
X189162500Y-14200000D02*
X189162500Y-18145000D01*
X189162500Y-18154000D02*
X192772500Y-18154000D01*
X189173500Y-14130000D02*
G75*
G02*
X191437500Y-12246000I2074000J-190000D01*
G01*
X192777500Y-18130000D02*
G75*
G02*
X195037500Y-16250000I2070000J-190000D01*
G01*
X192692500Y-20450000D02*
G75*
G03*
X195062500Y-22620000I2270000J100000D01*
G01*
X192982500Y-26500000D02*
G75*
G03*
X191762500Y-25080000I-1320000J100000D01*
G01*
X69157500Y-45600000D02*
X69157500Y-46300000D01*
X64162500Y-39500000D02*
X64137500Y-44100000D01*
X73737500Y-41700000D02*
X73737500Y-46300000D01*
X67937500Y-44125000D02*
X64162500Y-44125000D01*
X68862500Y-39475000D02*
X64162500Y-39475000D01*
X73712500Y-41675000D02*
X71162500Y-41675000D01*
X73712500Y-46325000D02*
X69162500Y-46325000D01*
X76237500Y-35250000D02*
X71187500Y-35296000D01*
X76237500Y-35204000D02*
X76237500Y-31296000D01*
X76237500Y-31296000D02*
X67612500Y-31296000D01*
X65337500Y-33250000D02*
X65337500Y-37195000D01*
X65337500Y-37204000D02*
X68947500Y-37204000D01*
X65348500Y-33180000D02*
G75*
G02*
X67612500Y-31296000I2074000J-190000D01*
G01*
X68952500Y-37180000D02*
G75*
G02*
X71212500Y-35300000I2070000J-190000D01*
G01*
X68867500Y-39500000D02*
G75*
G03*
X71237500Y-41670000I2270000J100000D01*
G01*
X69157500Y-45550000D02*
G75*
G03*
X67937500Y-44130000I-1320000J100000D01*
G01*
X84387500Y-37204000D02*
X87997500Y-37204000D01*
X84387500Y-33250000D02*
X84387500Y-37195000D01*
X95287500Y-31296000D02*
X86662500Y-31296000D01*
X95287500Y-35204000D02*
X95287500Y-31296000D01*
X95287500Y-35250000D02*
X90237500Y-35296000D01*
X92762500Y-46325000D02*
X88212500Y-46325000D01*
X92762500Y-41675000D02*
X90212500Y-41675000D01*
X87912500Y-39475000D02*
X83212500Y-39475000D01*
X86987500Y-44125000D02*
X83212500Y-44125000D01*
X92787500Y-41700000D02*
X92787500Y-46300000D01*
X83212500Y-39500000D02*
X83187500Y-44100000D01*
X88207500Y-45600000D02*
X88207500Y-46300000D01*
X88207500Y-45550000D02*
G75*
G03*
X86987500Y-44130000I-1320000J100000D01*
G01*
X87917500Y-39500000D02*
G75*
G03*
X90287500Y-41670000I2270000J100000D01*
G01*
X88002500Y-37180000D02*
G75*
G02*
X90262500Y-35300000I2070000J-190000D01*
G01*
X84398500Y-33180000D02*
G75*
G02*
X86662500Y-31296000I2074000J-190000D01*
G01*
X103437500Y-37204000D02*
X107047500Y-37204000D01*
X103437500Y-33250000D02*
X103437500Y-37195000D01*
X114337500Y-31296000D02*
X105712500Y-31296000D01*
X114337500Y-35204000D02*
X114337500Y-31296000D01*
X114337500Y-35250000D02*
X109287500Y-35296000D01*
X111812500Y-46325000D02*
X107262500Y-46325000D01*
X111812500Y-41675000D02*
X109262500Y-41675000D01*
X106962500Y-39475000D02*
X102262500Y-39475000D01*
X106037500Y-44125000D02*
X102262500Y-44125000D01*
X111837500Y-41700000D02*
X111837500Y-46300000D01*
X102262500Y-39500000D02*
X102237500Y-44100000D01*
X107257500Y-45600000D02*
X107257500Y-46300000D01*
X107257500Y-45550000D02*
G75*
G03*
X106037500Y-44130000I-1320000J100000D01*
G01*
X106967500Y-39500000D02*
G75*
G03*
X109337500Y-41670000I2270000J100000D01*
G01*
X107052500Y-37180000D02*
G75*
G02*
X109312500Y-35300000I2070000J-190000D01*
G01*
X103448500Y-33180000D02*
G75*
G02*
X105712500Y-31296000I2074000J-190000D01*
G01*
X222500000Y896000D02*
X226110000Y896000D01*
X222500000Y4850000D02*
X222500000Y905000D01*
X233400000Y6804000D02*
X224775000Y6804000D01*
X233400000Y2896000D02*
X233400000Y6804000D01*
X233400000Y2850000D02*
X228350000Y2804000D01*
X230875000Y-8225000D02*
X226325000Y-8225000D01*
X230875000Y-3575000D02*
X228325000Y-3575000D01*
X226025000Y-1375000D02*
X221325000Y-1375000D01*
X225100000Y-6025000D02*
X221325000Y-6025000D01*
X230900000Y-3600000D02*
X230900000Y-8200000D01*
X221325000Y-1400000D02*
X221300000Y-6000000D01*
X226320000Y-7500000D02*
X226320000Y-8200000D01*
X226320000Y-7450000D02*
G75*
G03*
X225100000Y-6030000I-1320000J100000D01*
G01*
X226030000Y-1400000D02*
G75*
G03*
X228400000Y-3570000I2270000J100000D01*
G01*
X226115000Y920000D02*
G75*
G02*
X228375000Y2800000I2070000J-190000D01*
G01*
X222511000Y4920000D02*
G75*
G02*
X224775000Y6804000I2074000J-190000D01*
G01*
X26295499Y-45600000D02*
X26295499Y-46300000D01*
X21300499Y-39500000D02*
X21275499Y-44100000D01*
X30875499Y-41700000D02*
X30875499Y-46300000D01*
X25075499Y-44125000D02*
X21300499Y-44125000D01*
X26000499Y-39475000D02*
X21300499Y-39475000D01*
X30850499Y-41675000D02*
X28300499Y-41675000D01*
X30850499Y-46325000D02*
X26300499Y-46325000D01*
X33375499Y-35250000D02*
X28325499Y-35296000D01*
X33375499Y-35204000D02*
X33375499Y-31296000D01*
X33375499Y-31296000D02*
X24750499Y-31296000D01*
X22475499Y-33250000D02*
X22475499Y-37195000D01*
X22475499Y-37204000D02*
X26085499Y-37204000D01*
X22486499Y-33180000D02*
G75*
G02*
X24750499Y-31296000I2074000J-190000D01*
G01*
X26090499Y-37180000D02*
G75*
G02*
X28350499Y-35300000I2070000J-190000D01*
G01*
X26005499Y-39500000D02*
G75*
G03*
X28375499Y-41670000I2270000J100000D01*
G01*
X26295499Y-45550000D02*
G75*
G03*
X25075499Y-44130000I-1320000J100000D01*
G01*
X73500000Y-10750000D02*
X73500000Y-9250000D01*
X78900000Y-10750000D02*
X73500000Y-10750000D01*
X78900000Y-9250000D02*
X78900000Y-10750000D01*
X73500000Y-9250000D02*
X78900000Y-9250000D01*
X76700000Y-9500000D02*
X76700000Y-10500000D01*
X75700000Y-10500000D02*
X76600000Y-10000000D01*
X75700000Y-9500000D02*
X75700000Y-10500000D01*
X76600000Y-10000000D02*
X75700000Y-9500000D01*
X54450000Y-10750000D02*
X54450000Y-9250000D01*
X59850000Y-10750000D02*
X54450000Y-10750000D01*
X59850000Y-9250000D02*
X59850000Y-10750000D01*
X54450000Y-9250000D02*
X59850000Y-9250000D01*
X57650000Y-9500000D02*
X57650000Y-10500000D01*
X56650000Y-10500000D02*
X57550000Y-10000000D01*
X56650000Y-9500000D02*
X56650000Y-10500000D01*
X57550000Y-10000000D02*
X56650000Y-9500000D01*
X24212500Y-29050000D02*
X23312500Y-29550000D01*
X23312500Y-29550000D02*
X23312500Y-28550000D01*
X23312500Y-28550000D02*
X24212500Y-29050000D01*
X24312500Y-29550000D02*
X24312500Y-28550000D01*
X21112500Y-29800000D02*
X26512500Y-29800000D01*
X26512500Y-29800000D02*
X26512500Y-28300000D01*
X26512500Y-28300000D02*
X21112500Y-28300000D01*
X21112500Y-28300000D02*
X21112500Y-29800000D01*
X43262500Y-29050000D02*
X42362500Y-29550000D01*
X42362500Y-29550000D02*
X42362500Y-28550000D01*
X42362500Y-28550000D02*
X43262500Y-29050000D01*
X43362500Y-29550000D02*
X43362500Y-28550000D01*
X40162500Y-29800000D02*
X45562500Y-29800000D01*
X45562500Y-29800000D02*
X45562500Y-28300000D01*
X45562500Y-28300000D02*
X40162500Y-28300000D01*
X40162500Y-28300000D02*
X40162500Y-29800000D01*
X62312500Y-29050000D02*
X61412500Y-29550000D01*
X61412500Y-29550000D02*
X61412500Y-28550000D01*
X61412500Y-28550000D02*
X62312500Y-29050000D01*
X62412500Y-29550000D02*
X62412500Y-28550000D01*
X59212500Y-29800000D02*
X64612500Y-29800000D01*
X64612500Y-29800000D02*
X64612500Y-28300000D01*
X64612500Y-28300000D02*
X59212500Y-28300000D01*
X59212500Y-28300000D02*
X59212500Y-29800000D01*
X81362500Y-29050000D02*
X80462500Y-29550000D01*
X80462500Y-29550000D02*
X80462500Y-28550000D01*
X80462500Y-28550000D02*
X81362500Y-29050000D01*
X81462500Y-29550000D02*
X81462500Y-28550000D01*
X78262500Y-29800000D02*
X83662500Y-29800000D01*
X83662500Y-29800000D02*
X83662500Y-28300000D01*
X83662500Y-28300000D02*
X78262500Y-28300000D01*
X78262500Y-28300000D02*
X78262500Y-29800000D01*
X169170000Y-7500000D02*
X169170000Y-8200000D01*
X164175000Y-1400000D02*
X164150000Y-6000000D01*
X173750000Y-3600000D02*
X173750000Y-8200000D01*
X167950000Y-6025000D02*
X164175000Y-6025000D01*
X168875000Y-1375000D02*
X164175000Y-1375000D01*
X173725000Y-3575000D02*
X171175000Y-3575000D01*
X173725000Y-8225000D02*
X169175000Y-8225000D01*
X176250000Y2850000D02*
X171200000Y2804000D01*
X176250000Y2896000D02*
X176250000Y6804000D01*
X176250000Y6804000D02*
X167625000Y6804000D01*
X165350000Y4850000D02*
X165350000Y905000D01*
X165350000Y896000D02*
X168960000Y896000D01*
X165361000Y4920000D02*
G75*
G02*
X167625000Y6804000I2074000J-190000D01*
G01*
X168965000Y920000D02*
G75*
G02*
X171225000Y2800000I2070000J-190000D01*
G01*
X168880000Y-1400000D02*
G75*
G03*
X171250000Y-3570000I2270000J100000D01*
G01*
X169170000Y-7450000D02*
G75*
G03*
X167950000Y-6030000I-1320000J100000D01*
G01*
X135412500Y-28300000D02*
X135412500Y-29800000D01*
X140812500Y-28300000D02*
X135412500Y-28300000D01*
X140812500Y-29800000D02*
X140812500Y-28300000D01*
X135412500Y-29800000D02*
X140812500Y-29800000D01*
X138612500Y-29550000D02*
X138612500Y-28550000D01*
X137612500Y-28550000D02*
X138512500Y-29050000D01*
X137612500Y-29550000D02*
X137612500Y-28550000D01*
X138512500Y-29050000D02*
X137612500Y-29550000D01*
X211612500Y-28300000D02*
X211612500Y-29800000D01*
X217012500Y-28300000D02*
X211612500Y-28300000D01*
X217012500Y-29800000D02*
X217012500Y-28300000D01*
X211612500Y-29800000D02*
X217012500Y-29800000D01*
X214812500Y-29550000D02*
X214812500Y-28550000D01*
X213812500Y-28550000D02*
X214712500Y-29050000D01*
X213812500Y-29550000D02*
X213812500Y-28550000D01*
X214712500Y-29050000D02*
X213812500Y-29550000D01*
X54870000Y-7500000D02*
X54870000Y-8200000D01*
X49875000Y-1400000D02*
X49850000Y-6000000D01*
X59450000Y-3600000D02*
X59450000Y-8200000D01*
X53650000Y-6025000D02*
X49875000Y-6025000D01*
X54575000Y-1375000D02*
X49875000Y-1375000D01*
X59425000Y-3575000D02*
X56875000Y-3575000D01*
X59425000Y-8225000D02*
X54875000Y-8225000D01*
X61950000Y2850000D02*
X56900000Y2804000D01*
X61950000Y2896000D02*
X61950000Y6804000D01*
X61950000Y6804000D02*
X53325000Y6804000D01*
X51050000Y4850000D02*
X51050000Y905000D01*
X51050000Y896000D02*
X54660000Y896000D01*
X51061000Y4920000D02*
G75*
G02*
X53325000Y6804000I2074000J-190000D01*
G01*
X54665000Y920000D02*
G75*
G02*
X56925000Y2800000I2070000J-190000D01*
G01*
X54580000Y-1400000D02*
G75*
G03*
X56950000Y-3570000I2270000J100000D01*
G01*
X54870000Y-7450000D02*
G75*
G03*
X53650000Y-6030000I-1320000J100000D01*
G01*
X70100000Y896000D02*
X73710000Y896000D01*
X70100000Y4850000D02*
X70100000Y905000D01*
X81000000Y6804000D02*
X72375000Y6804000D01*
X81000000Y2896000D02*
X81000000Y6804000D01*
X81000000Y2850000D02*
X75950000Y2804000D01*
X78475000Y-8225000D02*
X73925000Y-8225000D01*
X78475000Y-3575000D02*
X75925000Y-3575000D01*
X73625000Y-1375000D02*
X68925000Y-1375000D01*
X72700000Y-6025000D02*
X68925000Y-6025000D01*
X78500000Y-3600000D02*
X78500000Y-8200000D01*
X68925000Y-1400000D02*
X68900000Y-6000000D01*
X73920000Y-7500000D02*
X73920000Y-8200000D01*
X73920000Y-7450000D02*
G75*
G03*
X72700000Y-6030000I-1320000J100000D01*
G01*
X73630000Y-1400000D02*
G75*
G03*
X76000000Y-3570000I2270000J100000D01*
G01*
X73715000Y920000D02*
G75*
G02*
X75975000Y2800000I2070000J-190000D01*
G01*
X70111000Y4920000D02*
G75*
G02*
X72375000Y6804000I2074000J-190000D01*
G01*
X112020000Y-7500000D02*
X112020000Y-8200000D01*
X107025000Y-1400000D02*
X107000000Y-6000000D01*
X116600000Y-3600000D02*
X116600000Y-8200000D01*
X110800000Y-6025000D02*
X107025000Y-6025000D01*
X111725000Y-1375000D02*
X107025000Y-1375000D01*
X116575000Y-3575000D02*
X114025000Y-3575000D01*
X116575000Y-8225000D02*
X112025000Y-8225000D01*
X119100000Y2850000D02*
X114050000Y2804000D01*
X119100000Y2896000D02*
X119100000Y6804000D01*
X119100000Y6804000D02*
X110475000Y6804000D01*
X108200000Y4850000D02*
X108200000Y905000D01*
X108200000Y896000D02*
X111810000Y896000D01*
X108211000Y4920000D02*
G75*
G02*
X110475000Y6804000I2074000J-190000D01*
G01*
X111815000Y920000D02*
G75*
G02*
X114075000Y2800000I2070000J-190000D01*
G01*
X111730000Y-1400000D02*
G75*
G03*
X114100000Y-3570000I2270000J100000D01*
G01*
X112020000Y-7450000D02*
G75*
G03*
X110800000Y-6030000I-1320000J100000D01*
G01*
X127250000Y896000D02*
X130860000Y896000D01*
X127250000Y4850000D02*
X127250000Y905000D01*
X138150000Y6804000D02*
X129525000Y6804000D01*
X138150000Y2896000D02*
X138150000Y6804000D01*
X138150000Y2850000D02*
X133100000Y2804000D01*
X135625000Y-8225000D02*
X131075000Y-8225000D01*
X135625000Y-3575000D02*
X133075000Y-3575000D01*
X130775000Y-1375000D02*
X126075000Y-1375000D01*
X129850000Y-6025000D02*
X126075000Y-6025000D01*
X135650000Y-3600000D02*
X135650000Y-8200000D01*
X126075000Y-1400000D02*
X126050000Y-6000000D01*
X131070000Y-7500000D02*
X131070000Y-8200000D01*
X131070000Y-7450000D02*
G75*
G03*
X129850000Y-6030000I-1320000J100000D01*
G01*
X130780000Y-1400000D02*
G75*
G03*
X133150000Y-3570000I2270000J100000D01*
G01*
X130865000Y920000D02*
G75*
G02*
X133125000Y2800000I2070000J-190000D01*
G01*
X127261000Y4920000D02*
G75*
G02*
X129525000Y6804000I2074000J-190000D01*
G01*
X188220000Y-7500000D02*
X188220000Y-8200000D01*
X183225000Y-1400000D02*
X183200000Y-6000000D01*
X192800000Y-3600000D02*
X192800000Y-8200000D01*
X187000000Y-6025000D02*
X183225000Y-6025000D01*
X187925000Y-1375000D02*
X183225000Y-1375000D01*
X192775000Y-3575000D02*
X190225000Y-3575000D01*
X192775000Y-8225000D02*
X188225000Y-8225000D01*
X195300000Y2850000D02*
X190250000Y2804000D01*
X195300000Y2896000D02*
X195300000Y6804000D01*
X195300000Y6804000D02*
X186675000Y6804000D01*
X184400000Y4850000D02*
X184400000Y905000D01*
X184400000Y896000D02*
X188010000Y896000D01*
X184411000Y4920000D02*
G75*
G02*
X186675000Y6804000I2074000J-190000D01*
G01*
X188015000Y920000D02*
G75*
G02*
X190275000Y2800000I2070000J-190000D01*
G01*
X187930000Y-1400000D02*
G75*
G03*
X190300000Y-3570000I2270000J100000D01*
G01*
X188220000Y-7450000D02*
G75*
G03*
X187000000Y-6030000I-1320000J100000D01*
G01*
X203450000Y896000D02*
X207060000Y896000D01*
X203450000Y4850000D02*
X203450000Y905000D01*
X214350000Y6804000D02*
X205725000Y6804000D01*
X214350000Y2896000D02*
X214350000Y6804000D01*
X214350000Y2850000D02*
X209300000Y2804000D01*
X211825000Y-8225000D02*
X207275000Y-8225000D01*
X211825000Y-3575000D02*
X209275000Y-3575000D01*
X206975000Y-1375000D02*
X202275000Y-1375000D01*
X206050000Y-6025000D02*
X202275000Y-6025000D01*
X211850000Y-3600000D02*
X211850000Y-8200000D01*
X202275000Y-1400000D02*
X202250000Y-6000000D01*
X207270000Y-7500000D02*
X207270000Y-8200000D01*
X207270000Y-7450000D02*
G75*
G03*
X206050000Y-6030000I-1320000J100000D01*
G01*
X206980000Y-1400000D02*
G75*
G03*
X209350000Y-3570000I2270000J100000D01*
G01*
X207065000Y920000D02*
G75*
G02*
X209325000Y2800000I2070000J-190000D01*
G01*
X203461000Y4920000D02*
G75*
G02*
X205725000Y6804000I2074000J-190000D01*
G01*
X21532500Y-26550000D02*
X21532500Y-27250000D01*
X16537500Y-20450000D02*
X16512500Y-25050000D01*
X26112500Y-22650000D02*
X26112500Y-27250000D01*
X20312500Y-25075000D02*
X16537500Y-25075000D01*
X21237500Y-20425000D02*
X16537500Y-20425000D01*
X26087500Y-22625000D02*
X23537500Y-22625000D01*
X26087500Y-27275000D02*
X21537500Y-27275000D01*
X28612500Y-16200000D02*
X23562500Y-16246000D01*
X28612500Y-16154000D02*
X28612500Y-12246000D01*
X28612500Y-12246000D02*
X19987500Y-12246000D01*
X17712500Y-14200000D02*
X17712500Y-18145000D01*
X17712500Y-18154000D02*
X21322500Y-18154000D01*
X17723500Y-14130000D02*
G75*
G02*
X19987500Y-12246000I2074000J-190000D01*
G01*
X21327500Y-18130000D02*
G75*
G02*
X23587500Y-16250000I2070000J-190000D01*
G01*
X21242500Y-20450000D02*
G75*
G03*
X23612500Y-22620000I2270000J100000D01*
G01*
X21532500Y-26500000D02*
G75*
G03*
X20312500Y-25080000I-1320000J100000D01*
G01*
X36762500Y-18154000D02*
X40372500Y-18154000D01*
X36762500Y-14200000D02*
X36762500Y-18145000D01*
X47662500Y-12246000D02*
X39037500Y-12246000D01*
X47662500Y-16154000D02*
X47662500Y-12246000D01*
X47662500Y-16200000D02*
X42612500Y-16246000D01*
X45137500Y-27275000D02*
X40587500Y-27275000D01*
X45137500Y-22625000D02*
X42587500Y-22625000D01*
X40287500Y-20425000D02*
X35587500Y-20425000D01*
X39362500Y-25075000D02*
X35587500Y-25075000D01*
X45162500Y-22650000D02*
X45162500Y-27250000D01*
X35587500Y-20450000D02*
X35562500Y-25050000D01*
X40582500Y-26550000D02*
X40582500Y-27250000D01*
X40582500Y-26500000D02*
G75*
G03*
X39362500Y-25080000I-1320000J100000D01*
G01*
X40292500Y-20450000D02*
G75*
G03*
X42662500Y-22620000I2270000J100000D01*
G01*
X40377500Y-18130000D02*
G75*
G02*
X42637500Y-16250000I2070000J-190000D01*
G01*
X36773500Y-14130000D02*
G75*
G02*
X39037500Y-12246000I2074000J-190000D01*
G01*
X59632500Y-26550000D02*
X59632500Y-27250000D01*
X54637500Y-20450000D02*
X54612500Y-25050000D01*
X64212500Y-22650000D02*
X64212500Y-27250000D01*
X58412500Y-25075000D02*
X54637500Y-25075000D01*
X59337500Y-20425000D02*
X54637500Y-20425000D01*
X64187500Y-22625000D02*
X61637500Y-22625000D01*
X64187500Y-27275000D02*
X59637500Y-27275000D01*
X66712500Y-16200000D02*
X61662500Y-16246000D01*
X66712500Y-16154000D02*
X66712500Y-12246000D01*
X66712500Y-12246000D02*
X58087500Y-12246000D01*
X55812500Y-14200000D02*
X55812500Y-18145000D01*
X55812500Y-18154000D02*
X59422500Y-18154000D01*
X55823500Y-14130000D02*
G75*
G02*
X58087500Y-12246000I2074000J-190000D01*
G01*
X59427500Y-18130000D02*
G75*
G02*
X61687500Y-16250000I2070000J-190000D01*
G01*
X59342500Y-20450000D02*
G75*
G03*
X61712500Y-22620000I2270000J100000D01*
G01*
X59632500Y-26500000D02*
G75*
G03*
X58412500Y-25080000I-1320000J100000D01*
G01*
X74862500Y-18154000D02*
X78472500Y-18154000D01*
X74862500Y-14200000D02*
X74862500Y-18145000D01*
X85762500Y-12246000D02*
X77137500Y-12246000D01*
X85762500Y-16154000D02*
X85762500Y-12246000D01*
X85762500Y-16200000D02*
X80712500Y-16246000D01*
X83237500Y-27275000D02*
X78687500Y-27275000D01*
X83237500Y-22625000D02*
X80687500Y-22625000D01*
X78387500Y-20425000D02*
X73687500Y-20425000D01*
X77462500Y-25075000D02*
X73687500Y-25075000D01*
X83262500Y-22650000D02*
X83262500Y-27250000D01*
X73687500Y-20450000D02*
X73662500Y-25050000D01*
X78682500Y-26550000D02*
X78682500Y-27250000D01*
X78682500Y-26500000D02*
G75*
G03*
X77462500Y-25080000I-1320000J100000D01*
G01*
X78392500Y-20450000D02*
G75*
G03*
X80762500Y-22620000I2270000J100000D01*
G01*
X78477500Y-18130000D02*
G75*
G02*
X80737500Y-16250000I2070000J-190000D01*
G01*
X74873500Y-14130000D02*
G75*
G02*
X77137500Y-12246000I2074000J-190000D01*
G01*
X93912500Y-18154000D02*
X97522500Y-18154000D01*
X93912500Y-14200000D02*
X93912500Y-18145000D01*
X104812500Y-12246000D02*
X96187500Y-12246000D01*
X104812500Y-16154000D02*
X104812500Y-12246000D01*
X104812500Y-16200000D02*
X99762500Y-16246000D01*
X102287500Y-27275000D02*
X97737500Y-27275000D01*
X102287500Y-22625000D02*
X99737500Y-22625000D01*
X97437500Y-20425000D02*
X92737500Y-20425000D01*
X96512500Y-25075000D02*
X92737500Y-25075000D01*
X102312500Y-22650000D02*
X102312500Y-27250000D01*
X92737500Y-20450000D02*
X92712500Y-25050000D01*
X97732500Y-26550000D02*
X97732500Y-27250000D01*
X97732500Y-26500000D02*
G75*
G03*
X96512500Y-25080000I-1320000J100000D01*
G01*
X97442500Y-20450000D02*
G75*
G03*
X99812500Y-22620000I2270000J100000D01*
G01*
X97527500Y-18130000D02*
G75*
G02*
X99787500Y-16250000I2070000J-190000D01*
G01*
X93923500Y-14130000D02*
G75*
G02*
X96187500Y-12246000I2074000J-190000D01*
G01*
X116782500Y-26550000D02*
X116782500Y-27250000D01*
X111787500Y-20450000D02*
X111762500Y-25050000D01*
X121362500Y-22650000D02*
X121362500Y-27250000D01*
X115562500Y-25075000D02*
X111787500Y-25075000D01*
X116487500Y-20425000D02*
X111787500Y-20425000D01*
X121337500Y-22625000D02*
X118787500Y-22625000D01*
X121337500Y-27275000D02*
X116787500Y-27275000D01*
X123862500Y-16200000D02*
X118812500Y-16246000D01*
X123862500Y-16154000D02*
X123862500Y-12246000D01*
X123862500Y-12246000D02*
X115237500Y-12246000D01*
X112962500Y-14200000D02*
X112962500Y-18145000D01*
X112962500Y-18154000D02*
X116572500Y-18154000D01*
X112973500Y-14130000D02*
G75*
G02*
X115237500Y-12246000I2074000J-190000D01*
G01*
X116577500Y-18130000D02*
G75*
G02*
X118837500Y-16250000I2070000J-190000D01*
G01*
X116492500Y-20450000D02*
G75*
G03*
X118862500Y-22620000I2270000J100000D01*
G01*
X116782500Y-26500000D02*
G75*
G03*
X115562500Y-25080000I-1320000J100000D01*
G01*
X173932500Y-26550000D02*
X173932500Y-27250000D01*
X168937500Y-20450000D02*
X168912500Y-25050000D01*
X178512500Y-22650000D02*
X178512500Y-27250000D01*
X172712500Y-25075000D02*
X168937500Y-25075000D01*
X173637500Y-20425000D02*
X168937500Y-20425000D01*
X178487500Y-22625000D02*
X175937500Y-22625000D01*
X178487500Y-27275000D02*
X173937500Y-27275000D01*
X181012500Y-16200000D02*
X175962500Y-16246000D01*
X181012500Y-16154000D02*
X181012500Y-12246000D01*
X181012500Y-12246000D02*
X172387500Y-12246000D01*
X170112500Y-14200000D02*
X170112500Y-18145000D01*
X170112500Y-18154000D02*
X173722500Y-18154000D01*
X170123500Y-14130000D02*
G75*
G02*
X172387500Y-12246000I2074000J-190000D01*
G01*
X173727500Y-18130000D02*
G75*
G02*
X175987500Y-16250000I2070000J-190000D01*
G01*
X173642500Y-20450000D02*
G75*
G03*
X176012500Y-22620000I2270000J100000D01*
G01*
X173932500Y-26500000D02*
G75*
G03*
X172712500Y-25080000I-1320000J100000D01*
G01*
X179637500Y-37204000D02*
X183247500Y-37204000D01*
X179637500Y-33250000D02*
X179637500Y-37195000D01*
X190537500Y-31296000D02*
X181912500Y-31296000D01*
X190537500Y-35204000D02*
X190537500Y-31296000D01*
X190537500Y-35250000D02*
X185487500Y-35296000D01*
X188012500Y-46325000D02*
X183462500Y-46325000D01*
X188012500Y-41675000D02*
X185462500Y-41675000D01*
X183162500Y-39475000D02*
X178462500Y-39475000D01*
X182237500Y-44125000D02*
X178462500Y-44125000D01*
X188037500Y-41700000D02*
X188037500Y-46300000D01*
X178462500Y-39500000D02*
X178437500Y-44100000D01*
X183457500Y-45600000D02*
X183457500Y-46300000D01*
X183457500Y-45550000D02*
G75*
G03*
X182237500Y-44130000I-1320000J100000D01*
G01*
X183167500Y-39500000D02*
G75*
G03*
X185537500Y-41670000I2270000J100000D01*
G01*
X183252500Y-37180000D02*
G75*
G02*
X185512500Y-35300000I2070000J-190000D01*
G01*
X179648500Y-33180000D02*
G75*
G02*
X181912500Y-31296000I2074000J-190000D01*
G01*
X202507500Y-45600000D02*
X202507500Y-46300000D01*
X197512500Y-39500000D02*
X197487500Y-44100000D01*
X207087500Y-41700000D02*
X207087500Y-46300000D01*
X201287500Y-44125000D02*
X197512500Y-44125000D01*
X202212500Y-39475000D02*
X197512500Y-39475000D01*
X207062500Y-41675000D02*
X204512500Y-41675000D01*
X207062500Y-46325000D02*
X202512500Y-46325000D01*
X209587500Y-35250000D02*
X204537500Y-35296000D01*
X209587500Y-35204000D02*
X209587500Y-31296000D01*
X209587500Y-31296000D02*
X200962500Y-31296000D01*
X198687500Y-33250000D02*
X198687500Y-37195000D01*
X198687500Y-37204000D02*
X202297500Y-37204000D01*
X198698500Y-33180000D02*
G75*
G02*
X200962500Y-31296000I2074000J-190000D01*
G01*
X202302500Y-37180000D02*
G75*
G02*
X204562500Y-35300000I2070000J-190000D01*
G01*
X202217500Y-39500000D02*
G75*
G03*
X204587500Y-41670000I2270000J100000D01*
G01*
X202507500Y-45550000D02*
G75*
G03*
X201287500Y-44130000I-1320000J100000D01*
G01*
X217737500Y-37204000D02*
X221347500Y-37204000D01*
X217737500Y-33250000D02*
X217737500Y-37195000D01*
X228637500Y-31296000D02*
X220012500Y-31296000D01*
X228637500Y-35204000D02*
X228637500Y-31296000D01*
X228637500Y-35250000D02*
X223587500Y-35296000D01*
X226112500Y-46325000D02*
X221562500Y-46325000D01*
X226112500Y-41675000D02*
X223562500Y-41675000D01*
X221262500Y-39475000D02*
X216562500Y-39475000D01*
X220337500Y-44125000D02*
X216562500Y-44125000D01*
X226137500Y-41700000D02*
X226137500Y-46300000D01*
X216562500Y-39500000D02*
X216537500Y-44100000D01*
X221557500Y-45600000D02*
X221557500Y-46300000D01*
X221557500Y-45550000D02*
G75*
G03*
X220337500Y-44130000I-1320000J100000D01*
G01*
X221267500Y-39500000D02*
G75*
G03*
X223637500Y-41670000I2270000J100000D01*
G01*
X221352500Y-37180000D02*
G75*
G02*
X223612500Y-35300000I2070000J-190000D01*
G01*
X217748500Y-33180000D02*
G75*
G02*
X220012500Y-31296000I2074000J-190000D01*
G01*
X240607500Y-45600000D02*
X240607500Y-46300000D01*
X235612500Y-39500000D02*
X235587500Y-44100000D01*
X245187500Y-41700000D02*
X245187500Y-46300000D01*
X239387500Y-44125000D02*
X235612500Y-44125000D01*
X240312500Y-39475000D02*
X235612500Y-39475000D01*
X245162500Y-41675000D02*
X242612500Y-41675000D01*
X245162500Y-46325000D02*
X240612500Y-46325000D01*
X247687500Y-35250000D02*
X242637500Y-35296000D01*
X247687500Y-35204000D02*
X247687500Y-31296000D01*
X247687500Y-31296000D02*
X239062500Y-31296000D01*
X236787500Y-33250000D02*
X236787500Y-37195000D01*
X236787500Y-37204000D02*
X240397500Y-37204000D01*
X236798500Y-33180000D02*
G75*
G02*
X239062500Y-31296000I2074000J-190000D01*
G01*
X240402500Y-37180000D02*
G75*
G02*
X242662500Y-35300000I2070000J-190000D01*
G01*
X240317500Y-39500000D02*
G75*
G03*
X242687500Y-41670000I2270000J100000D01*
G01*
X240607500Y-45550000D02*
G75*
G03*
X239387500Y-44130000I-1320000J100000D01*
G01*
X60575000Y-56254000D02*
X64185000Y-56254000D01*
X60575000Y-52300000D02*
X60575000Y-56245000D01*
X71475000Y-50346000D02*
X62850000Y-50346000D01*
X71475000Y-54254000D02*
X71475000Y-50346000D01*
X71475000Y-54300000D02*
X66425000Y-54346000D01*
X68950000Y-65375000D02*
X64400000Y-65375000D01*
X68950000Y-60725000D02*
X66400000Y-60725000D01*
X64100000Y-58525000D02*
X59400000Y-58525000D01*
X63175000Y-63175000D02*
X59400000Y-63175000D01*
X68975000Y-60750000D02*
X68975000Y-65350000D01*
X59400000Y-58550000D02*
X59375000Y-63150000D01*
X64395000Y-64650000D02*
X64395000Y-65350000D01*
X64395000Y-64600000D02*
G75*
G03*
X63175000Y-63180000I-1320000J100000D01*
G01*
X64105000Y-58550000D02*
G75*
G03*
X66475000Y-60720000I2270000J100000D01*
G01*
X64190000Y-56230000D02*
G75*
G02*
X66450000Y-54350000I2070000J-190000D01*
G01*
X60586000Y-52230000D02*
G75*
G02*
X62850000Y-50346000I2074000J-190000D01*
G01*
X193925000Y-56254000D02*
X197535000Y-56254000D01*
X193925000Y-52300000D02*
X193925000Y-56245000D01*
X204825000Y-50346000D02*
X196200000Y-50346000D01*
X204825000Y-54254000D02*
X204825000Y-50346000D01*
X204825000Y-54300000D02*
X199775000Y-54346000D01*
X202300000Y-65375000D02*
X197750000Y-65375000D01*
X202300000Y-60725000D02*
X199750000Y-60725000D01*
X197450000Y-58525000D02*
X192750000Y-58525000D01*
X196525000Y-63175000D02*
X192750000Y-63175000D01*
X202325000Y-60750000D02*
X202325000Y-65350000D01*
X192750000Y-58550000D02*
X192725000Y-63150000D01*
X197745000Y-64650000D02*
X197745000Y-65350000D01*
X197745000Y-64600000D02*
G75*
G03*
X196525000Y-63180000I-1320000J100000D01*
G01*
X197455000Y-58550000D02*
G75*
G03*
X199825000Y-60720000I2270000J100000D01*
G01*
X197540000Y-56230000D02*
G75*
G02*
X199800000Y-54350000I2070000J-190000D01*
G01*
X193936000Y-52230000D02*
G75*
G02*
X196200000Y-50346000I2074000J-190000D01*
G01*
X173933000Y-64650000D02*
X173933000Y-65350000D01*
X168938000Y-58550000D02*
X168913000Y-63150000D01*
X178513000Y-60750000D02*
X178513000Y-65350000D01*
X172713000Y-63175000D02*
X168938000Y-63175000D01*
X173638000Y-58525000D02*
X168938000Y-58525000D01*
X178488000Y-60725000D02*
X175938000Y-60725000D01*
X178488000Y-65375000D02*
X173938000Y-65375000D01*
X181013000Y-54300000D02*
X175963000Y-54346000D01*
X181013000Y-54254000D02*
X181013000Y-50346000D01*
X181013000Y-50346000D02*
X172388000Y-50346000D01*
X170113000Y-52300000D02*
X170113000Y-56245000D01*
X170113000Y-56254000D02*
X173723000Y-56254000D01*
X170124000Y-52230000D02*
G75*
G02*
X172388000Y-50346000I2074000J-190000D01*
G01*
X173728000Y-56230000D02*
G75*
G02*
X175988000Y-54350000I2070000J-190000D01*
G01*
X173643000Y-58550000D02*
G75*
G03*
X176013000Y-60720000I2270000J100000D01*
G01*
X173933000Y-64600000D02*
G75*
G03*
X172713000Y-63180000I-1320000J100000D01*
G01*
D11*
X10559285Y19313571D02*
X9809285Y19313571D01*
X10345000Y19563571D01*
X9809285Y19813571D01*
X10559285Y19813571D01*
X10559285Y20170714D02*
X10059285Y20170714D01*
X9809285Y20170714D02*
X9845000Y20135000D01*
X9880714Y20170714D01*
X9845000Y20206428D01*
X9809285Y20170714D01*
X9880714Y20170714D01*
X10523571Y20849285D02*
X10559285Y20777857D01*
X10559285Y20635000D01*
X10523571Y20563571D01*
X10487857Y20527857D01*
X10416428Y20492142D01*
X10202142Y20492142D01*
X10130714Y20527857D01*
X10095000Y20563571D01*
X10059285Y20635000D01*
X10059285Y20777857D01*
X10095000Y20849285D01*
X10559285Y21170714D02*
X10059285Y21170714D01*
X10202142Y21170714D02*
X10130714Y21206428D01*
X10095000Y21242142D01*
X10059285Y21313571D01*
X10059285Y21385000D01*
X10559285Y21742142D02*
X10523571Y21670714D01*
X10487857Y21635000D01*
X10416428Y21599285D01*
X10202142Y21599285D01*
X10130714Y21635000D01*
X10095000Y21670714D01*
X10059285Y21742142D01*
X10059285Y21849285D01*
X10095000Y21920714D01*
X10130714Y21956428D01*
X10202142Y21992142D01*
X10416428Y21992142D01*
X10487857Y21956428D01*
X10523571Y21920714D01*
X10559285Y21849285D01*
X10559285Y21742142D01*
X9809285Y22313571D02*
X10416428Y22313571D01*
X10487857Y22349285D01*
X10523571Y22385000D01*
X10559285Y22456428D01*
X10559285Y22599285D01*
X10523571Y22670714D01*
X10487857Y22706428D01*
X10416428Y22742142D01*
X9809285Y22742142D01*
X10523571Y23063571D02*
X10559285Y23170714D01*
X10559285Y23349285D01*
X10523571Y23420714D01*
X10487857Y23456428D01*
X10416428Y23492142D01*
X10345000Y23492142D01*
X10273571Y23456428D01*
X10237857Y23420714D01*
X10202142Y23349285D01*
X10166428Y23206428D01*
X10130714Y23135000D01*
X10095000Y23099285D01*
X10023571Y23063571D01*
X9952142Y23063571D01*
X9880714Y23099285D01*
X9845000Y23135000D01*
X9809285Y23206428D01*
X9809285Y23385000D01*
X9845000Y23492142D01*
X10166428Y24063571D02*
X10202142Y24170714D01*
X10237857Y24206428D01*
X10309285Y24242142D01*
X10416428Y24242142D01*
X10487857Y24206428D01*
X10523571Y24170714D01*
X10559285Y24099285D01*
X10559285Y23813571D01*
X9809285Y23813571D01*
X9809285Y24063571D01*
X9845000Y24135000D01*
X9880714Y24170714D01*
X9952142Y24206428D01*
X10023571Y24206428D01*
X10095000Y24170714D01*
X10130714Y24135000D01*
X10166428Y24063571D01*
X10166428Y23813571D01*
D10*
X130431904Y25670000D02*
X130527142Y25717619D01*
X130670000Y25717619D01*
X130812857Y25670000D01*
X130908095Y25574761D01*
X130955714Y25479523D01*
X131003333Y25289047D01*
X131003333Y25146190D01*
X130955714Y24955714D01*
X130908095Y24860476D01*
X130812857Y24765238D01*
X130670000Y24717619D01*
X130574761Y24717619D01*
X130431904Y24765238D01*
X130384285Y24812857D01*
X130384285Y25146190D01*
X130574761Y25146190D01*
X129955714Y24717619D02*
X129955714Y25717619D01*
X129384285Y24717619D01*
X129384285Y25717619D01*
X128908095Y24717619D02*
X128908095Y25717619D01*
X128670000Y25717619D01*
X128527142Y25670000D01*
X128431904Y25574761D01*
X128384285Y25479523D01*
X128336666Y25289047D01*
X128336666Y25146190D01*
X128384285Y24955714D01*
X128431904Y24860476D01*
X128527142Y24765238D01*
X128670000Y24717619D01*
X128908095Y24717619D01*
X130262857Y22077619D02*
X130739047Y22077619D01*
X130739047Y23077619D01*
X129929523Y22601428D02*
X129596190Y22601428D01*
X129453333Y22077619D02*
X129929523Y22077619D01*
X129929523Y23077619D01*
X129453333Y23077619D01*
X129024761Y22077619D02*
X129024761Y23077619D01*
X128786666Y23077619D01*
X128643809Y23030000D01*
X128548571Y22934761D01*
X128500952Y22839523D01*
X128453333Y22649047D01*
X128453333Y22506190D01*
X128500952Y22315714D01*
X128548571Y22220476D01*
X128643809Y22125238D01*
X128786666Y22077619D01*
X129024761Y22077619D01*
X131023333Y20587619D02*
X130690000Y19587619D01*
X130356666Y20587619D01*
X129451904Y19682857D02*
X129499523Y19635238D01*
X129642380Y19587619D01*
X129737619Y19587619D01*
X129880476Y19635238D01*
X129975714Y19730476D01*
X130023333Y19825714D01*
X130070952Y20016190D01*
X130070952Y20159047D01*
X130023333Y20349523D01*
X129975714Y20444761D01*
X129880476Y20540000D01*
X129737619Y20587619D01*
X129642380Y20587619D01*
X129499523Y20540000D01*
X129451904Y20492380D01*
X128451904Y19682857D02*
X128499523Y19635238D01*
X128642380Y19587619D01*
X128737619Y19587619D01*
X128880476Y19635238D01*
X128975714Y19730476D01*
X129023333Y19825714D01*
X129070952Y20016190D01*
X129070952Y20159047D01*
X129023333Y20349523D01*
X128975714Y20444761D01*
X128880476Y20540000D01*
X128737619Y20587619D01*
X128642380Y20587619D01*
X128499523Y20540000D01*
X128451904Y20492380D01*
X142193333Y25437619D02*
X141860000Y24437619D01*
X141526666Y25437619D01*
X140621904Y24532857D02*
X140669523Y24485238D01*
X140812380Y24437619D01*
X140907619Y24437619D01*
X141050476Y24485238D01*
X141145714Y24580476D01*
X141193333Y24675714D01*
X141240952Y24866190D01*
X141240952Y25009047D01*
X141193333Y25199523D01*
X141145714Y25294761D01*
X141050476Y25390000D01*
X140907619Y25437619D01*
X140812380Y25437619D01*
X140669523Y25390000D01*
X140621904Y25342380D01*
X139621904Y24532857D02*
X139669523Y24485238D01*
X139812380Y24437619D01*
X139907619Y24437619D01*
X140050476Y24485238D01*
X140145714Y24580476D01*
X140193333Y24675714D01*
X140240952Y24866190D01*
X140240952Y25009047D01*
X140193333Y25199523D01*
X140145714Y25294761D01*
X140050476Y25390000D01*
X139907619Y25437619D01*
X139812380Y25437619D01*
X139669523Y25390000D01*
X139621904Y25342380D01*
X141452857Y21897619D02*
X141929047Y21897619D01*
X141929047Y22897619D01*
X141119523Y22421428D02*
X140786190Y22421428D01*
X140643333Y21897619D02*
X141119523Y21897619D01*
X141119523Y22897619D01*
X140643333Y22897619D01*
X140214761Y21897619D02*
X140214761Y22897619D01*
X139976666Y22897619D01*
X139833809Y22850000D01*
X139738571Y22754761D01*
X139690952Y22659523D01*
X139643333Y22469047D01*
X139643333Y22326190D01*
X139690952Y22135714D01*
X139738571Y22040476D01*
X139833809Y21945238D01*
X139976666Y21897619D01*
X140214761Y21897619D01*
X141621904Y20430000D02*
X141717142Y20477619D01*
X141860000Y20477619D01*
X142002857Y20430000D01*
X142098095Y20334761D01*
X142145714Y20239523D01*
X142193333Y20049047D01*
X142193333Y19906190D01*
X142145714Y19715714D01*
X142098095Y19620476D01*
X142002857Y19525238D01*
X141860000Y19477619D01*
X141764761Y19477619D01*
X141621904Y19525238D01*
X141574285Y19572857D01*
X141574285Y19906190D01*
X141764761Y19906190D01*
X141145714Y19477619D02*
X141145714Y20477619D01*
X140574285Y19477619D01*
X140574285Y20477619D01*
X140098095Y19477619D02*
X140098095Y20477619D01*
X139860000Y20477619D01*
X139717142Y20430000D01*
X139621904Y20334761D01*
X139574285Y20239523D01*
X139526666Y20049047D01*
X139526666Y19906190D01*
X139574285Y19715714D01*
X139621904Y19620476D01*
X139717142Y19525238D01*
X139860000Y19477619D01*
X140098095Y19477619D01*
M02*
