M48
; DRILL file {KiCad (5.1.6-0-10_14)} date Saturday, July 23, 2022 at 01:37:30 PM
; FORMAT={-:-/ absolute / metric / decimal}
; #@! TF.CreationDate,2022-07-23T13:37:30+09:00
; #@! TF.GenerationSoftware,Kicad,Pcbnew,(5.1.6-0-10_14)
; #@! TF.FileFunction,Plated,1,2,PTH
FMAT,2
METRIC
T1C0.400
T2C0.813
T3C1.000
T4C1.020
T5C1.300
%
G90
G05
T1
X19.772Y19.792
X37.45Y20.6
X54.44Y21.7
X54.67Y16.59
X54.68Y17.81
X54.68Y15.28
X54.76Y13.87
X54.82Y12.56
X67.555Y16.625
X67.56Y17.84
X71.25Y16.6
X71.32Y15.34
X71.37Y14.16
X107.4Y8.2
X110.91Y-67.01
X110.91Y-69.19
X120.98Y31.21
X120.98Y22.33
X126.45Y7.04
X145.5Y5.69
X147.88Y10.5
X149.01Y12.04
X149.89Y13.36
X151.96Y14.5
X151.97Y7.85
X171.58Y30.05
X180.92Y15.92
X180.92Y14.76
X180.95Y17.075
X183.6Y5.21
X185.17Y14.98
X185.46Y17.89
X185.74Y16.75
X187.38Y16.0
X202.65Y5.66
X203.72Y8.23
X230.44Y14.71
X246.94Y-64.59
X247.615Y-10.125
X247.8Y-50.23
X250.78Y-28.54
T2
X215.97Y-47.73
X223.59Y-47.73
X191.452Y-29.05
X199.072Y-29.05
X14.692Y29.421
X14.692Y14.201
X17.232Y29.421
X17.232Y14.201
X19.772Y29.421
X19.772Y14.201
X22.312Y29.421
X22.312Y14.201
X24.852Y29.421
X24.852Y14.201
X27.392Y29.421
X27.392Y14.201
X29.932Y29.421
X29.932Y14.201
X32.472Y29.421
X32.472Y14.201
X35.012Y29.421
X35.012Y14.201
X37.552Y29.421
X37.552Y14.201
X40.092Y29.421
X40.092Y14.201
X42.632Y29.421
X42.632Y14.201
X115.253Y-67.15
X122.873Y-67.15
X135.89Y-10.0
X143.51Y-10.0
X72.39Y-10.0
X80.01Y-10.0
X91.44Y-10.0
X99.06Y-10.0
X123.01Y-48.08
X130.63Y-48.08
X239.077Y-48.1
X246.697Y-48.1
X205.74Y-10.0
X213.36Y-10.0
X172.403Y-29.05
X180.022Y-29.05
X24.765Y-48.1
X32.385Y-48.1
X215.265Y-67.15
X222.885Y-67.15
X58.102Y-29.05
X65.722Y-29.05
X148.59Y-10.0
X156.21Y-10.0
X110.49Y-10.0
X118.11Y-10.0
X143.827Y-48.1
X151.447Y-48.1
X24.765Y-67.15
X32.385Y-67.15
X48.578Y-48.1
X56.197Y-48.1
X153.352Y-29.05
X160.972Y-29.05
X86.678Y-67.15
X94.298Y-67.15
X234.315Y-67.15
X241.935Y-67.15
X172.403Y-67.15
X180.023Y-67.15
X143.828Y-67.15
X151.448Y-67.15
X39.052Y-29.05
X46.672Y-29.05
X67.627Y-48.1
X75.248Y-48.1
X167.64Y-10.0
X175.26Y-10.0
X228.92Y-10.56
X236.54Y-10.56
X162.877Y-48.1
X170.498Y-48.1
X43.815Y-67.15
X51.435Y-67.15
X43.29Y-9.94
X50.91Y-9.94
X115.252Y-29.05
X122.872Y-29.05
X86.677Y-48.1
X94.297Y-48.1
X181.927Y-48.1
X189.547Y-48.1
X62.865Y-67.15
X70.485Y-67.15
X96.203Y-29.05
X103.822Y-29.05
X20.002Y-29.05
X27.622Y-29.05
X210.502Y-29.05
X218.123Y-29.05
X105.727Y-48.1
X113.347Y-48.1
X234.315Y-29.05
X241.935Y-29.05
X186.69Y-10.0
X194.31Y-10.0
X200.977Y-48.1
X208.597Y-48.1
X196.215Y-67.15
X203.835Y-67.15
X77.153Y-29.05
X84.772Y-29.05
X53.34Y-10.0
X60.96Y-10.0
X134.302Y-29.05
X141.922Y-29.05
T4
X205.77Y29.45
X205.77Y11.67
X206.0Y23.1
X206.0Y20.56
X206.0Y18.02
X208.31Y29.45
X208.31Y11.67
X210.85Y29.45
X210.85Y11.67
X213.39Y29.45
X213.39Y11.67
X215.93Y29.45
X215.93Y11.67
X218.47Y29.45
X218.47Y11.67
X221.01Y29.45
X221.01Y11.67
X223.55Y29.45
X223.55Y11.67
X226.09Y29.45
X226.09Y11.67
X228.63Y29.45
X228.63Y11.67
X231.17Y29.45
X231.17Y11.67
X233.71Y29.45
X233.71Y11.67
X236.25Y29.45
X236.25Y11.67
X238.79Y29.45
X238.79Y11.67
X241.33Y29.45
X241.33Y11.67
X243.87Y29.45
X243.87Y11.67
X246.41Y29.45
X246.41Y11.67
X248.95Y29.45
X248.95Y11.67
X251.49Y29.45
X251.49Y11.67
X254.03Y29.45
X254.03Y11.67
T5
X62.34Y28.28
X62.34Y21.78
T3
G00X104.99Y21.36
M15
G01X104.99Y20.86
M16
G05
G00X109.19Y29.86
M15
G01X109.19Y29.36
M16
G05
G00X109.19Y26.86
M15
G01X109.19Y26.36
M16
G05
G00X109.19Y22.86
M15
G01X109.19Y22.36
M16
G05
G00X157.97Y21.42
M15
G01X157.97Y20.92
M16
G05
G00X162.17Y29.92
M15
G01X162.17Y29.42
M16
G05
G00X162.17Y26.92
M15
G01X162.17Y26.42
M16
G05
G00X162.17Y22.92
M15
G01X162.17Y22.42
M16
G05
G00X131.27Y21.36
M15
G01X131.27Y20.86
M16
G05
G00X135.47Y29.86
M15
G01X135.47Y29.36
M16
G05
G00X135.47Y26.86
M15
G01X135.47Y26.36
M16
G05
G00X135.47Y22.86
M15
G01X135.47Y22.36
M16
G05
T0
M30
