999
"DXF R12 Output" (www.mydxf.blogspot.com)
 0 
SECTION
 2 
HEADER
 9 
$ACADVER
 1 
AC1009
 9 
$EXTMIN
 10 
 0 
 20 
 0 
 9 
$EXTMAX
 10 
 8.5 
 20 
 11 
 0 
ENDSEC
 0 
SECTION
 2 
ENTITIES
0
LINE
8
Layer 1
10
-18.438800
20
46.468600
11
46.497200
21
46.468600
0
LINE
8
Layer 1
10
18.774700
20
62.862900
11
18.774700
21
58.911600
0
LINE
8
Layer 1
10
-20.271100
20
68.913700
11
48.331600
21
68.913700
0
LINE
8
Layer 1
10
16.006200
20
64.287900
11
16.006200
21
68.239200
0
LINE
8
Layer 1
10
42.887900
20
64.287900
11
42.887900
21
68.239200
0
LINE
8
Layer 1
10
-20.552800
20
68.632000
11
-20.552800
21
52.407000
0
LINE
8
Layer 1
10
5.253570
20
68.239200
11
1.302330
21
68.239200
0
LINE
8
Layer 1
10
34.822000
20
48.159000
11
34.822000
21
52.110200
0
LINE
8
Layer 1
10
46.920800
20
57.486500
11
42.969600
21
57.486500
0
LINE
8
Layer 1
10
13.398400
20
62.862900
11
13.398400
21
58.911600
0
LINE
8
Layer 1
10
48.614000
20
52.407000
11
48.614000
21
68.631300
0
LINE
8
Layer 1
10
22.807600
20
64.287900
11
26.758900
21
64.287900
0
LINE
8
Layer 1
10
8.022030
20
62.862900
11
8.022030
21
58.911600
0
LINE
8
Layer 1
10
21.464300
20
53.535300
11
25.415500
21
53.535300
0
LINE
8
Layer 1
10
6.596940
20
58.911600
11
6.596940
21
62.862900
0
LINE
8
Layer 1
10
-12.137100
20
52.110200
11
-12.137100
21
48.159000
0
LINE
8
Layer 1
10
41.626200
20
58.911600
11
45.577500
21
58.911600
0
LINE
8
Layer 1
10
-8.185810
20
48.159000
11
-8.185810
21
52.110200
0
LINE
8
Layer 1
10
32.216900
20
57.486500
11
32.216900
21
53.535300
0
LINE
8
Layer 1
10
-18.859600
20
58.911600
11
-14.908400
21
58.911600
0
LINE
8
Layer 1
10
-8.106960
20
58.911600
11
-4.155720
21
58.911600
0
LINE
8
Layer 1
10
41.544500
20
53.535300
11
41.544500
21
57.486500
0
LINE
8
Layer 1
10
-8.106960
20
62.862900
11
-8.106960
21
58.911600
0
LINE
8
Layer 1
10
-9.532050
20
62.862900
11
-13.483300
21
62.862900
0
LINE
8
Layer 1
10
-5.417360
20
53.535300
11
-1.466120
21
53.535300
0
LINE
8
Layer 1
10
-10.793700
20
57.486500
11
-10.793700
21
53.535300
0
LINE
8
Layer 1
10
-4.074000
20
68.239200
11
-4.074000
21
64.287900
0
LINE
8
Layer 1
10
-4.155720
20
58.911600
11
-4.155720
21
62.862900
0
LINE
8
Layer 1
10
18.774700
20
58.911600
11
22.725900
21
58.911600
0
LINE
8
Layer 1
10
-8.185810
20
52.110200
11
-12.137100
21
52.110200
0
LINE
8
Layer 1
10
1.220610
20
58.911600
11
1.220610
21
62.862900
0
LINE
8
Layer 1
10
-5.499080
20
68.239200
11
-9.450330
21
68.239200
0
LINE
8
Layer 1
10
-13.562100
20
52.110200
11
-17.513400
21
52.110200
0
LINE
8
Layer 1
10
30.791900
20
53.535300
11
30.791900
21
57.486500
0
LINE
8
Layer 1
10
5.253570
20
64.287900
11
5.253570
21
68.239200
0
LINE
8
Layer 1
10
11.973300
20
62.862900
11
8.022030
21
62.862900
0
LINE
8
Layer 1
10
12.055000
20
68.239200
11
12.055000
21
64.287900
0
LINE
8
Layer 1
10
-17.513400
20
48.159000
11
-13.562100
21
48.159000
0
LINE
8
Layer 1
10
10.629900
20
68.239200
11
6.678660
21
68.239200
0
LINE
8
Layer 1
10
-20.552800
20
52.407000
11
-18.710510
21
46.672250
0
LINE
8
Layer 1
10
45.577500
20
62.862900
11
41.626200
21
62.862900
0
LINE
8
Layer 1
10
-12.137100
20
48.159000
11
-8.185810
21
48.159000
0
LINE
8
Layer 1
10
42.887900
20
68.239200
11
38.936600
21
68.239200
0
LINE
8
Layer 1
10
-17.513400
20
52.110200
11
-17.513400
21
48.159000
0
LINE
8
Layer 1
10
38.854900
20
62.862900
11
34.903700
21
62.862900
0
LINE
8
Layer 1
10
11.973300
20
48.159000
11
11.973300
21
52.110200
0
LINE
8
Layer 1
10
26.840600
20
53.535300
11
30.791900
21
53.535300
0
LINE
8
Layer 1
10
25.415500
20
53.535300
11
25.415500
21
57.486500
0
LINE
8
Layer 1
10
20.036300
20
48.159000
11
20.036300
21
52.110200
0
LINE
8
Layer 1
10
45.574600
20
48.159000
11
45.574600
21
52.110200
0
LINE
8
Layer 1
10
3.910210
20
57.486500
11
-0.041034
21
57.486500
0
LINE
8
Layer 1
10
-18.859600
20
62.862900
11
-18.859600
21
58.911600
0
LINE
8
Layer 1
10
40.198300
20
52.110200
11
36.247000
21
52.110200
0
LINE
8
Layer 1
10
-0.041034
20
57.486500
11
-0.041034
21
53.535300
0
LINE
8
Layer 1
10
10.711600
20
53.535300
11
14.662900
21
53.535300
0
LINE
8
Layer 1
10
-0.041034
20
52.110200
11
-0.041034
21
48.159000
0
LINE
8
Layer 1
10
38.854900
20
58.911600
11
38.854900
21
62.862900
0
LINE
8
Layer 1
10
37.511500
20
64.287900
11
37.511500
21
68.239200
0
LINE
8
Layer 1
10
42.969600
20
57.486500
11
42.969600
21
53.535300
0
LINE
8
Layer 1
10
28.102300
20
48.159000
11
28.102300
21
52.110200
0
LINE
8
Layer 1
10
-10.875400
20
64.287900
11
-10.875400
21
68.239200
0
LINE
8
Layer 1
10
8.022030
20
52.110200
11
8.022030
21
48.159000
0
LINE
8
Layer 1
10
21.464300
20
57.486500
11
21.464300
21
53.535300
0
LINE
8
Layer 1
10
16.088000
20
57.486500
11
16.088000
21
53.535300
0
LINE
8
Layer 1
10
29.527300
20
62.862900
11
29.527300
21
58.911600
0
LINE
8
Layer 1
10
14.662900
20
57.486500
11
10.711600
21
57.486500
0
LINE
8
Layer 1
10
14.662900
20
53.535300
11
14.662900
21
57.486500
0
LINE
8
Layer 1
10
41.623400
20
48.159000
11
45.574600
21
48.159000
0
LINE
8
Layer 1
10
-1.466120
20
53.535300
11
-1.466120
21
57.486500
0
LINE
8
Layer 1
10
41.623400
20
52.110200
11
41.623400
21
48.159000
0
LINE
8
Layer 1
10
-1.466120
20
57.486500
11
-5.417360
21
57.486500
0
LINE
8
Layer 1
10
-13.483300
20
58.911600
11
-9.532050
21
58.911600
0
LINE
8
Layer 1
10
36.247000
20
52.110200
11
36.247000
21
48.159000
0
LINE
8
Layer 1
10
37.593300
20
57.486500
11
37.593300
21
53.535300
0
LINE
8
Layer 1
10
-0.041034
20
48.159000
11
3.910210
21
48.159000
0
LINE
8
Layer 1
10
30.870700
20
48.159000
11
34.822000
21
48.159000
0
LINE
8
Layer 1
10
32.135200
20
68.239200
11
28.184000
21
68.239200
0
LINE
8
Layer 1
10
17.431300
20
64.287900
11
21.382600
21
64.287900
0
LINE
8
Layer 1
10
9.286540
20
53.535300
11
9.286540
21
57.486500
0
LINE
8
Layer 1
10
10.711600
20
57.486500
11
10.711600
21
53.535300
0
LINE
8
Layer 1
10
-0.122754
20
64.287900
11
-0.122754
21
68.239200
0
LINE
8
Layer 1
10
5.335300
20
53.535300
11
9.286540
21
53.535300
0
LINE
8
Layer 1
10
-17.513400
20
53.535300
11
-13.562100
21
53.535300
0
LINE
8
Layer 1
10
9.286540
20
57.486500
11
5.335300
21
57.486500
0
LINE
8
Layer 1
10
-10.875400
20
68.239200
11
-14.826700
21
68.239200
0
LINE
8
Layer 1
10
-18.710000
20
46.672400
11
-18.438832
21
46.468960
0
LINE
8
Layer 1
10
-4.074000
20
64.287900
11
-0.122754
21
64.287900
0
LINE
8
Layer 1
10
-13.483300
20
62.862900
11
-13.483300
21
58.911600
0
LINE
8
Layer 1
10
45.574600
20
52.110200
11
41.623400
21
52.110200
0
LINE
8
Layer 1
10
-0.041034
20
53.535300
11
3.910210
21
53.535300
0
LINE
8
Layer 1
10
48.614700
20
68.631800
11
48.531897
21
68.831585
0
LINE
8
Layer 1
10
48.531897
20
68.831585
11
48.332049
21
68.914236
0
LINE
8
Layer 1
10
-5.499080
20
64.287900
11
-5.499080
21
68.239200
0
LINE
8
Layer 1
10
6.596940
20
62.862900
11
2.645700
21
62.862900
0
LINE
8
Layer 1
10
36.168200
20
53.535300
11
36.168200
21
57.486500
0
LINE
8
Layer 1
10
26.840600
20
57.486500
11
26.840600
21
53.535300
0
LINE
8
Layer 1
10
34.903700
20
58.911600
11
38.854900
21
58.911600
0
LINE
8
Layer 1
10
36.168200
20
57.486500
11
32.216900
21
57.486500
0
LINE
8
Layer 1
10
46.920800
20
53.535300
11
46.920800
21
57.486500
0
LINE
8
Layer 1
10
24.151000
20
52.110200
11
24.151000
21
48.159000
0
LINE
8
Layer 1
10
45.577500
20
58.911600
11
45.577500
21
62.862900
0
LINE
8
Layer 1
10
24.151000
20
48.159000
11
28.102300
21
48.159000
0
LINE
8
Layer 1
10
12.055000
20
64.287900
11
16.006200
21
64.287900
0
LINE
8
Layer 1
10
28.102300
20
58.911600
11
28.102300
21
62.862900
0
LINE
8
Layer 1
10
37.511500
20
68.239200
11
33.560300
21
68.239200
0
LINE
8
Layer 1
10
28.184000
20
68.239200
11
28.184000
21
64.287900
0
LINE
8
Layer 1
10
33.560300
20
68.239200
11
33.560300
21
64.287900
0
LINE
8
Layer 1
10
33.560300
20
64.287900
11
37.511500
21
64.287900
0
LINE
8
Layer 1
10
22.725900
20
58.911600
11
22.725900
21
62.862900
0
LINE
8
Layer 1
10
1.220610
20
62.862900
11
-2.730630
21
62.862900
0
LINE
8
Layer 1
10
8.022030
20
48.159000
11
11.973300
21
48.159000
0
LINE
8
Layer 1
10
11.973300
20
52.110200
11
8.022030
21
52.110200
0
LINE
8
Layer 1
10
30.791900
20
57.486500
11
26.840600
21
57.486500
0
LINE
8
Layer 1
10
-14.908400
20
62.862900
11
-18.859600
21
62.862900
0
LINE
8
Layer 1
10
29.527300
20
58.911600
11
33.478600
21
58.911600
0
LINE
8
Layer 1
10
-14.908400
20
58.911600
11
-14.908400
21
62.862900
0
LINE
8
Layer 1
10
-13.562100
20
53.535300
11
-13.562100
21
57.486500
0
LINE
8
Layer 1
10
1.302330
20
68.239200
11
1.302330
21
64.287900
0
LINE
8
Layer 1
10
16.085100
20
48.159000
11
20.036300
21
48.159000
0
LINE
8
Layer 1
10
28.102300
20
62.862900
11
24.151000
21
62.862900
0
LINE
8
Layer 1
10
16.006200
20
68.239200
11
12.055000
21
68.239200
0
LINE
8
Layer 1
10
8.022030
20
58.911600
11
11.973300
21
58.911600
0
LINE
8
Layer 1
10
-14.826700
20
68.239200
11
-14.826700
21
64.287900
0
LINE
8
Layer 1
10
2.645700
20
58.911600
11
6.596940
21
58.911600
0
LINE
8
Layer 1
10
-2.730630
20
62.862900
11
-2.730630
21
58.911600
0
LINE
8
Layer 1
10
11.973300
20
58.911600
11
11.973300
21
62.862900
0
LINE
8
Layer 1
10
2.645700
20
62.862900
11
2.645700
21
58.911600
0
LINE
8
Layer 1
10
25.415500
20
57.486500
11
21.464300
21
57.486500
0
LINE
8
Layer 1
10
-2.730630
20
58.911600
11
1.220610
21
58.911600
0
LINE
8
Layer 1
10
6.678660
20
64.287900
11
10.629900
21
64.287900
0
LINE
8
Layer 1
10
16.085100
20
52.110200
11
16.085100
21
48.159000
0
LINE
8
Layer 1
10
24.151000
20
62.862900
11
24.151000
21
58.911600
0
LINE
8
Layer 1
10
46.497500
20
46.468900
11
46.768611
21
46.672340
0
LINE
8
Layer 1
10
20.036300
20
52.110200
11
16.085100
21
52.110200
0
LINE
8
Layer 1
10
-9.450330
20
68.239200
11
-9.450330
21
64.287900
0
LINE
8
Layer 1
10
42.969600
20
53.535300
11
46.920800
21
53.535300
0
LINE
8
Layer 1
10
-9.450330
20
64.287900
11
-5.499080
21
64.287900
0
LINE
8
Layer 1
10
17.349600
20
58.911600
11
17.349600
21
62.862900
0
LINE
8
Layer 1
10
17.349600
20
62.862900
11
13.398400
21
62.862900
0
LINE
8
Layer 1
10
28.102300
20
52.110200
11
24.151000
21
52.110200
0
LINE
8
Layer 1
10
-6.760730
20
48.159000
11
-2.809490
21
48.159000
0
LINE
8
Layer 1
10
22.807600
20
68.239200
11
22.807600
21
64.287900
0
LINE
8
Layer 1
10
17.431300
20
68.239200
11
17.431300
21
64.287900
0
LINE
8
Layer 1
10
28.184000
20
64.287900
11
32.135200
21
64.287900
0
LINE
8
Layer 1
10
21.382600
20
68.239200
11
17.431300
21
68.239200
0
LINE
8
Layer 1
10
21.382600
20
64.287900
11
21.382600
21
68.239200
0
LINE
8
Layer 1
10
1.302330
20
64.287900
11
5.253570
21
64.287900
0
LINE
8
Layer 1
10
-6.842450
20
57.486500
11
-10.793700
21
57.486500
0
LINE
8
Layer 1
10
20.039200
20
53.535300
11
20.039200
21
57.486500
0
LINE
8
Layer 1
10
36.247000
20
48.159000
11
40.198300
21
48.159000
0
LINE
8
Layer 1
10
-2.809490
20
48.159000
11
-2.809490
21
52.110200
0
LINE
8
Layer 1
10
-6.760730
20
52.110200
11
-6.760730
21
48.159000
0
LINE
8
Layer 1
10
-13.562100
20
48.159000
11
-13.562100
21
52.110200
0
LINE
8
Layer 1
10
10.629900
20
64.287900
11
10.629900
21
68.239200
0
LINE
8
Layer 1
10
26.758900
20
64.287900
11
26.758900
21
68.239200
0
LINE
8
Layer 1
10
30.870700
20
52.110200
11
30.870700
21
48.159000
0
LINE
8
Layer 1
10
-4.155720
20
62.862900
11
-8.106960
21
62.862900
0
LINE
8
Layer 1
10
-9.532050
20
58.911600
11
-9.532050
21
62.862900
0
LINE
8
Layer 1
10
-13.562100
20
57.486500
11
-17.513400
21
57.486500
0
LINE
8
Layer 1
10
3.910210
20
53.535300
11
3.910210
21
57.486500
0
LINE
8
Layer 1
10
33.478600
20
58.911600
11
33.478600
21
62.862900
0
LINE
8
Layer 1
10
26.758900
20
68.239200
11
22.807600
21
68.239200
0
LINE
8
Layer 1
10
-14.826700
20
64.287900
11
-10.875400
21
64.287900
0
LINE
8
Layer 1
10
22.725900
20
62.862900
11
18.774700
21
62.862900
0
LINE
8
Layer 1
10
-20.270200
20
68.914500
11
-20.469944
21
68.831753
0
LINE
8
Layer 1
10
-20.469944
20
68.831753
11
-20.552651
21
68.631992
0
LINE
8
Layer 1
10
33.478600
20
62.862900
11
29.527300
21
62.862900
0
LINE
8
Layer 1
10
6.678660
20
68.239200
11
6.678660
21
64.287900
0
LINE
8
Layer 1
10
41.626200
20
62.862900
11
41.626200
21
58.911600
0
LINE
8
Layer 1
10
-5.417360
20
57.486500
11
-5.417360
21
53.535300
0
LINE
8
Layer 1
10
-17.513400
20
57.486500
11
-17.513400
21
53.535300
0
LINE
8
Layer 1
10
20.039200
20
57.486500
11
16.088000
21
57.486500
0
LINE
8
Layer 1
10
34.903700
20
62.862900
11
34.903700
21
58.911600
0
LINE
8
Layer 1
10
34.822000
20
52.110200
11
30.870700
21
52.110200
0
LINE
8
Layer 1
10
13.398400
20
58.911600
11
17.349600
21
58.911600
0
LINE
8
Layer 1
10
-6.842450
20
53.535300
11
-6.842450
21
57.486500
0
LINE
8
Layer 1
10
5.335300
20
57.486500
11
5.335300
21
53.535300
0
LINE
8
Layer 1
10
24.151000
20
58.911600
11
28.102300
21
58.911600
0
LINE
8
Layer 1
10
40.198300
20
48.159000
11
40.198300
21
52.110200
0
LINE
8
Layer 1
10
3.910210
20
48.159000
11
3.910210
21
52.110200
0
LINE
8
Layer 1
10
32.135200
20
64.287900
11
32.135200
21
68.239200
0
LINE
8
Layer 1
10
46.768200
20
46.672200
11
48.614070
21
52.406950
0
LINE
8
Layer 1
10
38.936600
20
64.287900
11
42.887900
21
64.287900
0
LINE
8
Layer 1
10
16.088000
20
53.535300
11
20.039200
21
53.535300
0
LINE
8
Layer 1
10
3.910210
20
52.110200
11
-0.041034
21
52.110200
0
LINE
8
Layer 1
10
37.593300
20
53.535300
11
41.544500
21
53.535300
0
LINE
8
Layer 1
10
-0.122754
20
68.239200
11
-4.074000
21
68.239200
0
LINE
8
Layer 1
10
41.544500
20
57.486500
11
37.593300
21
57.486500
0
LINE
8
Layer 1
10
38.936600
20
68.239200
11
38.936600
21
64.287900
0
LINE
8
Layer 1
10
-10.793700
20
53.535300
11
-6.842450
21
53.535300
0
LINE
8
Layer 1
10
32.216900
20
53.535300
11
36.168200
21
53.535300
0
LINE
8
Layer 1
10
-2.809490
20
52.110200
11
-6.760730
21
52.110200
0
LINE
8
Layer 1
10
122.968000
20
67.508700
11
54.366000
21
67.508700
0
LINE
8
Layer 1
10
122.968000
20
60.788300
11
54.366000
21
60.789000
0
LINE
8
Layer 1
10
123.251000
20
67.226400
11
123.168273
21
67.426109
0
LINE
8
Layer 1
10
123.168273
20
67.426109
11
122.968564
21
67.508836
0
LINE
8
Layer 1
10
54.083500
20
61.071500
11
54.166227
21
60.871791
0
LINE
8
Layer 1
10
54.166227
20
60.871791
11
54.365936
21
60.789064
0
LINE
8
Layer 1
10
54.366000
20
67.509000
11
54.166291
21
67.426273
0
LINE
8
Layer 1
10
54.166291
20
67.426273
11
54.083564
21
67.226564
0
LINE
8
Layer 1
10
122.969000
20
60.788900
11
123.168709
21
60.871627
0
LINE
8
Layer 1
10
123.168709
20
60.871627
11
123.251436
21
61.071336
0
LINE
8
Layer 1
10
123.250000
20
67.226300
11
123.250000
21
61.070700
0
LINE
8
Layer 1
10
54.083500
20
67.226300
11
54.083500
21
61.071500
0
LINE
8
Layer 1
10
56.637700
20
14.812100
11
121.574000
21
14.812100
0
LINE
8
Layer 1
10
123.691000
20
20.750400
11
123.691847
21
43.804100
0
LINE
8
Layer 1
10
54.806800
20
44.087400
11
54.607091
21
44.004673
0
LINE
8
Layer 1
10
54.607091
20
44.004673
11
54.524364
21
43.804964
0
LINE
8
Layer 1
10
56.366700
20
15.015500
11
56.637667
21
14.812060
0
LINE
8
Layer 1
10
121.574000
20
14.812100
11
121.844967
21
15.015540
0
LINE
8
Layer 1
10
123.691000
20
43.804800
11
123.608273
21
44.004509
0
LINE
8
Layer 1
10
123.608273
20
44.004509
11
123.408564
21
44.087236
0
LINE
8
Layer 1
10
54.523700
20
43.804800
11
54.523700
21
20.750400
0
LINE
8
Layer 1
10
123.409000
20
44.086600
11
54.806100
21
44.087300
0
LINE
8
Layer 1
10
54.523700
20
20.750400
11
56.366710
21
15.015650
0
LINE
8
Layer 1
10
121.845000
20
15.015700
11
123.690870
21
20.750450
 0 
ENDSEC
 0 
EOF