G04 #@! TF.GenerationSoftware,KiCad,Pcbnew,(5.1.6-0-10_14)*
G04 #@! TF.CreationDate,2022-07-10T08:57:52+09:00*
G04 #@! TF.ProjectId,cool445,636f6f6c-3434-4352-9e6b-696361645f70,rev?*
G04 #@! TF.SameCoordinates,Original*
G04 #@! TF.FileFunction,Profile,NP*
%FSLAX46Y46*%
G04 Gerber Fmt 4.6, Leading zero omitted, Abs format (unit mm)*
G04 Created by KiCad (PCBNEW (5.1.6-0-10_14)) date 2022-07-10 08:57:52*
%MOMM*%
%LPD*%
G01*
G04 APERTURE LIST*
G04 #@! TA.AperFunction,Profile*
%ADD10C,0.150000*%
G04 #@! TD*
G04 APERTURE END LIST*
D10*
X17339170Y-69420009D02*
G75*
G03*
X18300000Y-70140799I960830J280009D01*
G01*
X249350000Y-69420000D02*
G75*
G02*
X248389170Y-70140790I-960830J280009D01*
G01*
X254890000Y33590000D02*
G75*
G02*
X255890799Y32589201I0J-1000799D01*
G01*
X10810000Y32590000D02*
G75*
G02*
X11810799Y33590799I1000799J0D01*
G01*
X134460000Y-9500000D02*
G75*
G03*
X134460000Y-9500000I-1100000J0D01*
G01*
X134460000Y-49130000D02*
G75*
G03*
X134460000Y-49130000I-1100000J0D01*
G01*
X41590000Y-47700000D02*
G75*
G03*
X41590000Y-47700000I-1100000J0D01*
G01*
X227330000Y-47700000D02*
G75*
G03*
X227330000Y-47700000I-1100000J0D01*
G01*
X227330000Y-9500000D02*
G75*
G03*
X227330000Y-9500000I-1100000J0D01*
G01*
X41590000Y-9500000D02*
G75*
G03*
X41590000Y-9500000I-1100000J0D01*
G01*
X235930000Y21690000D02*
G75*
G03*
X235930000Y21690000I-1100000J0D01*
G01*
X167980000Y21680000D02*
G75*
G03*
X167980000Y21680000I-1100000J0D01*
G01*
X100920000Y21690000D02*
G75*
G03*
X100920000Y21690000I-1100000J0D01*
G01*
X32970000Y21680000D02*
G75*
G03*
X32970000Y21680000I-1100000J0D01*
G01*
X18300000Y-70140799D02*
X248389170Y-70140790D01*
X10810000Y-49100000D02*
X17339170Y-69420009D01*
X10810000Y32590000D02*
X10810000Y-49100000D01*
X254890000Y33590000D02*
X11810799Y33590799D01*
X255890000Y-49100000D02*
X255890799Y32589201D01*
X249350000Y-69420000D02*
X255890000Y-49100000D01*
M02*
